<svg width="290" height="51" viewBox="0 0 290 51" fill="none" xmlns="http://www.w3.org/2000/svg">
<path d="M71.8088 10.9692L70.0702 25.0708C71.0476 24.3376 71.8978 23.8467 72.6166 23.6002C73.3693 23.341 74.1856 23.2114 75.0634 23.2114C77.2218 23.2114 79.0049 23.9551 80.4107 25.4426C81.8164 26.9195 82.5203 28.8001 82.5203 31.0887C82.5203 33.6026 81.721 35.6936 80.1244 37.3617C78.5152 39.0532 76.5539 39.8969 74.2365 39.8969C72.0781 39.8969 70.1868 39.0617 68.569 37.3936L68.2998 39.525H64.5724L68.0814 10.9692H71.8088ZM78.776 31.1737C78.776 29.7542 78.354 28.5919 77.5102 27.6909C76.6663 26.7899 75.5701 26.3394 74.2216 26.3394C72.7587 26.3394 71.5501 26.8791 70.5939 27.9607C69.6377 29.0211 69.1606 30.3896 69.1606 32.0684C69.1606 33.4772 69.5719 34.6099 70.3925 35.4662C71.213 36.346 72.2816 36.7859 73.5983 36.7859C75.0485 36.7859 76.2698 36.2397 77.26 35.1454C78.2713 34.051 78.7781 32.7271 78.7781 31.1716L78.776 31.1737Z" fill="black"/>
<path d="M91.0035 23.5981L89.0465 39.525H85.3191L87.2761 23.5981H91.0035ZM92.1675 16.0246C92.1675 16.5665 91.9703 17.034 91.5781 17.4271C91.1837 17.8224 90.713 18.0179 90.1617 18.0179C89.6105 18.0179 89.1334 17.816 88.7284 17.4101C88.3341 16.9809 88.139 16.4921 88.139 15.9396C88.139 15.3871 88.3298 14.9196 88.7136 14.5371C89.0974 14.1546 89.5744 13.9464 90.113 13.9464C90.6515 13.9464 91.1413 14.1546 91.5462 14.5711C91.9618 14.977 92.1696 15.4615 92.1696 16.0246H92.1675Z" fill="black"/>
<path d="M100.411 27.064L98.876 39.525H95.1486L96.6836 27.064H94.574L94.9959 23.5981H97.1056L98.0173 16.2095H101.745L100.833 23.5981H104.274L103.852 27.064H100.411Z" fill="black"/>
<path d="M112.908 10.9692L111.169 25.0708C112.147 24.3376 112.997 23.8467 113.716 23.6002C114.468 23.341 115.285 23.2114 116.162 23.2114C118.321 23.2114 120.104 23.9551 121.51 25.4426C122.915 26.9195 123.619 28.8001 123.619 31.0887C123.619 33.6026 122.82 35.6936 121.223 37.3617C119.614 39.0532 117.653 39.8969 115.336 39.8969C113.177 39.8969 111.286 39.0617 109.668 37.3936L109.399 39.525H105.671L109.18 10.9692H112.908ZM119.875 31.1737C119.875 29.7542 119.453 28.5919 118.609 27.6909C117.765 26.7899 116.669 26.3394 115.321 26.3394C113.858 26.3394 112.649 26.8791 111.693 27.9607C110.737 29.0211 110.26 30.3896 110.26 32.0684C110.26 33.4772 110.671 34.6099 111.491 35.4662C112.312 36.346 113.381 36.7859 114.697 36.7859C116.148 36.7859 117.369 36.2397 118.359 35.1454C119.37 34.051 119.877 32.7271 119.877 31.1716L119.875 31.1737Z" fill="black"/>
<path d="M143.766 31.4096C143.766 33.8449 142.922 35.8891 141.237 37.5466C139.562 39.2041 137.492 40.0329 135.028 40.0329C132.565 40.0329 130.349 39.2487 128.719 37.6826C127.077 36.1037 126.255 34.1105 126.255 31.6965C126.255 29.2825 127.103 27.1766 128.801 25.5425C130.51 23.8978 132.647 23.0732 135.211 23.0732C137.774 23.0732 139.782 23.851 141.368 25.4065C142.965 26.9386 143.764 28.9404 143.764 31.4075L143.766 31.4096ZM140.005 31.2226C140.005 29.6905 139.559 28.4771 138.671 27.5868C137.783 26.6624 136.619 26.2013 135.179 26.2013C133.739 26.2013 132.446 26.7134 131.469 27.7398C130.491 28.7768 130.001 30.0794 130.001 31.6455C130.001 33.2116 130.461 34.4909 131.384 35.4492C132.306 36.4289 133.498 36.9197 134.961 36.9197C136.424 36.9197 137.626 36.3842 138.571 35.3132C139.528 34.2529 140.005 32.8907 140.005 31.2226Z" fill="black"/>
<path d="M155.699 30.9698L161.417 39.525H157.098L153.337 33.473L148.208 39.525H143.399L151.463 30.6659L146.722 23.6003H150.99L153.808 28.1648L157.603 23.6003H162.361L155.697 30.9719L155.699 30.9698Z" fill="black"/>
<path d="M174.83 30.9698L180.548 39.525H176.229L172.468 33.473L167.339 39.525H162.53L170.594 30.6659L165.853 23.6003H170.121L172.939 28.1648L176.734 23.6003H181.492L174.828 30.9719L174.83 30.9698Z" fill="black"/>
<path d="M50.8861 51H0V0H50.8861V51ZM2.87083 48.1227H48.0153V2.87725H2.87083V48.1227Z" fill="black"/>
<path d="M18.5756 19.5649L17.225 31.0675H14.74L13.3555 19.5649V13.311H18.5777V19.5649H18.5756ZM18.442 33.0416V37.8739H13.47V33.0416H18.442Z" fill="black"/>
<path d="M33.958 28.7789C33.8244 29.2018 33.7523 29.8584 33.7417 30.7509H29.2362C29.3019 28.8681 29.4821 27.5655 29.7705 26.8472C30.0589 26.1269 30.8052 25.3003 32.0052 24.3631L33.2223 23.409C33.623 23.1094 33.9453 22.78 34.1891 22.423C34.6344 21.8089 34.8549 21.1352 34.8549 20.4C34.8549 19.5542 34.6089 18.7808 34.1128 18.0859C33.6188 17.3889 32.7134 17.0404 31.401 17.0404C30.0885 17.0404 29.1959 17.4696 28.6574 18.3281C28.1188 19.1866 27.8474 20.077 27.8474 21.0035H23.026C23.1595 17.8266 24.2663 15.5762 26.3463 14.2481C27.6587 13.4002 29.2701 12.9774 31.1847 12.9774C33.6993 12.9774 35.7857 13.5788 37.4501 14.7836C39.1123 15.9885 39.9435 17.7714 39.9435 20.1344C39.9435 21.5836 39.5809 22.8034 38.86 23.7957C38.4381 24.3971 37.626 25.1664 36.4239 26.1035L35.2386 27.0236C34.5941 27.5251 34.1658 28.1116 33.9538 28.781L33.958 28.7789ZM34.0916 37.8739H29.1196V33.0416H34.0916V37.8739Z" fill="black"/>
<path d="M195.524 13.4194H200.805C203.099 13.4194 204.848 13.8019 206.053 14.569C207.043 15.1895 207.819 16.0629 208.381 17.1913C208.943 18.3536 209.225 19.5755 209.225 20.8611C209.225 22.7332 208.701 24.378 207.656 25.7996C206.104 27.9076 203.657 28.9616 200.315 28.9616H197.464L196.164 39.5314H192.299L195.521 13.4173L195.524 13.4194ZM198.933 17.0212L197.886 25.5276H200.4C201.986 25.5276 203.203 25.1196 204.053 24.3015C204.901 23.4834 205.328 22.304 205.328 20.7591C205.328 18.2665 203.742 17.0212 200.57 17.0212H198.933Z" fill="black"/>
<path d="M213.605 33.3922L210.433 39.5314H206.231L220.642 11.5579L229.636 39.5314H225.604L223.714 33.3922H213.605ZM215.276 30.0433H222.633L219.832 20.7591L215.276 30.0433Z" fill="black"/>
<path d="M243.482 27.3891H253.911C253.652 30.3556 252.944 32.7845 251.785 34.6779C249.603 38.2521 246.361 40.0393 242.065 40.0393C238.442 40.0393 235.461 38.8153 233.122 36.3694C230.781 33.9235 229.613 30.7997 229.613 27.0002C229.613 24.9369 230.012 22.9245 230.811 20.9631C231.598 19.0464 232.7 17.4462 234.119 16.1606C236.493 13.9846 239.434 12.8966 242.945 12.8966C247.243 12.8966 250.803 14.6497 253.627 18.156L251.112 20.7273C248.986 17.9308 246.24 16.5325 242.877 16.5325C240.098 16.5325 237.842 17.4972 236.109 19.4246C234.365 21.3754 233.493 23.8722 233.493 26.9174C233.493 29.7139 234.309 31.9961 235.94 33.7663C237.57 35.5364 239.693 36.4225 242.303 36.4225C244.147 36.4225 245.723 35.9146 247.029 34.901C248.322 33.8853 249.155 32.4998 249.526 30.7403H243.064L243.486 27.3913L243.482 27.3891Z" fill="black"/>
<path d="M272.563 13.4194L272.124 17.0212H262.555L261.729 23.7872H271.297L270.892 27.1363H261.324L260.244 35.9316H269.813L269.357 39.5335H255.942L259.148 13.4194H272.563Z" fill="black"/>
<path d="M290 16.7493L287.418 19.2185C286.192 17.4144 284.784 16.5134 283.198 16.5134C282.051 16.5134 281.099 16.8683 280.346 17.578C279.592 18.2877 279.216 19.1802 279.216 20.2512C279.216 21.1076 279.475 21.8471 279.992 22.4676C280.251 22.7609 280.631 23.0924 281.131 23.4664C281.631 23.8383 282.259 24.2505 283.012 24.701C285.251 26.01 286.748 27.1936 287.5 28.2519C288.266 29.3229 288.647 30.7275 288.647 32.4636C288.647 34.7182 287.905 36.5457 286.419 37.944C284.956 39.3422 283.026 40.0414 280.631 40.0414C278.695 40.0414 277.058 39.6249 275.72 38.7897C275.046 38.3732 274.414 37.8292 273.831 37.1577C273.246 36.4862 272.684 35.6724 272.143 34.714L275.08 32.7186C275.879 34.1275 276.659 35.0986 277.425 35.6277C278.19 36.1569 279.185 36.4225 280.412 36.4225C281.773 36.4225 282.84 36.0613 283.61 35.3409C284.379 34.6205 284.765 33.5941 284.765 32.2617C284.765 31.348 284.483 30.5766 283.921 29.9455C283.639 29.6183 283.222 29.2527 282.664 28.8469C282.106 28.441 281.4 27.9841 280.546 27.4762C278.589 26.316 277.221 25.211 276.445 24.1612C275.703 23.1136 275.332 21.7982 275.332 20.2215C275.332 18.1135 276.064 16.3646 277.527 14.9791C278.99 13.5809 280.834 12.8818 283.063 12.8818C284.513 12.8818 285.751 13.175 286.775 13.7615C287.82 14.348 288.895 15.3468 289.998 16.7556L290 16.7493Z" fill="black"/>
</svg>
