<svg width="786" height="393" viewBox="0 0 786 393" fill="none" xmlns="http://www.w3.org/2000/svg">
<mask id="mask0_26_5" style="mask-type:luminance" maskUnits="userSpaceOnUse" x="-1" y="0" width="787" height="393">
<path d="M785.5 393V0L-0.5 0V393L785.5 393Z" fill="white"/>
</mask>
<g mask="url(#mask0_26_5)">
<path d="M267.772 123.855L520.009 123.536C525.212 123.529 529.846 122.1 530.362 120.333L549.53 54.648C550.207 52.3266 545.876 48.9966 539.85 49.0045L247.752 49.3752C241.726 49.3831 237.4 52.7249 238.083 55.0436L257.413 120.68C257.933 122.447 262.57 123.863 267.774 123.857L267.772 123.855Z" fill="white"/>
<path d="M260.357 124.497C262.453 125.139 265.072 125.493 267.736 125.493H267.774L520.01 125.173C522.688 125.169 525.321 124.809 527.426 124.159C529.996 123.365 531.513 122.232 531.933 120.791L551.1 55.1065C551.436 53.9589 551.141 52.6908 550.273 51.5341C548.714 49.4577 544.895 47.367 539.87 47.367H539.848L247.749 47.7377C242.712 47.7443 238.886 49.8494 237.329 51.9323C236.463 53.0904 236.173 54.3598 236.511 55.506L255.841 121.142C256.265 122.582 257.784 123.711 260.357 124.498V124.497ZM239.953 53.8908C241.02 52.4629 244.042 51.0153 247.753 51.0101L539.852 50.6394H539.87C543.571 50.6394 546.586 52.0764 547.654 53.4978C547.918 53.8502 547.98 54.1069 547.957 54.1868L528.799 119.837C528.677 120.02 527.979 120.597 526.165 121.115C524.411 121.615 522.223 121.893 520.006 121.896L267.77 122.215H267.736C265.531 122.215 263.356 121.944 261.61 121.45C259.795 120.937 259.094 120.361 258.972 120.179L239.652 54.5772C239.636 54.5248 239.659 54.2838 239.953 53.8895V53.8908Z" fill="black"/>
<path d="M267.286 123.833L519.585 123.513C524.789 123.507 529.415 122.068 529.919 120.288L548.608 54.3794C549.265 52.0581 544.934 50.1677 538.928 50.1756L247.762 50.545C241.756 50.5529 237.429 52.4537 238.093 54.7737L256.944 120.635C257.454 122.414 262.082 123.841 267.286 123.833Z" fill="black"/>
<path d="M544.739 53.5659L243.392 53.9196L262.924 120.375L525.372 120.064L544.739 53.5659Z" fill="white"/>
<path d="M260.494 62.8734L524.011 62.3245C524.915 62.3232 525.647 61.5883 525.645 60.6831C525.643 59.7805 524.91 59.0495 524.007 59.0495H524.003L260.486 59.5984C259.582 59.5997 258.85 60.3346 258.853 61.2399C258.854 62.1438 259.588 62.8734 260.49 62.8734H260.494Z" fill="black"/>
<path d="M263.115 70.7334L468.99 70.1845C469.894 70.1819 470.626 69.447 470.623 68.5431C470.621 67.6405 469.888 66.9095 468.986 66.9095H468.982L263.108 67.4584C262.204 67.4611 261.473 68.196 261.474 69.0999C261.477 70.0025 262.209 70.7334 263.112 70.7334H263.115Z" fill="black"/>
<path d="M525.057 75.8987L264.16 76.3703L269.005 91.9305L520.504 91.4773L525.057 75.8987Z" fill="#FFDD43"/>
<path d="M269.005 93.568H269.008L520.507 93.1148C521.233 93.1148 521.872 92.634 522.076 91.9371L526.628 76.3599C526.774 75.8647 526.676 75.3302 526.366 74.9176C526.057 74.5062 525.573 74.2639 525.056 74.2639H525.054L264.157 74.7342C263.637 74.7342 263.148 74.9831 262.84 75.4023C262.532 75.8215 262.442 76.3625 262.597 76.859L267.442 92.4192C267.656 93.1043 268.289 93.5694 269.005 93.5694V93.568ZM522.871 77.5415L519.277 89.8424L270.21 90.2917L266.384 78.0052L522.871 77.5428V77.5415Z" fill="black"/>
<path d="M345.613 99.7827L271.261 99.9163L275.532 113.631L347.296 113.501L345.613 99.7827Z" fill="#FFDD43"/>
<path d="M275.532 115.268H275.534L347.297 115.138C347.766 115.138 348.212 114.937 348.522 114.584C348.833 114.233 348.977 113.766 348.921 113.301L347.237 99.5809C347.136 98.7596 346.439 98.1425 345.611 98.1425H345.609L271.257 98.2762C270.737 98.2762 270.248 98.5251 269.941 98.9443C269.633 99.3635 269.542 99.9045 269.697 100.401L273.968 114.115C274.181 114.801 274.814 115.266 275.53 115.266L275.532 115.268ZM344.164 101.423L345.445 111.867L276.736 111.992L273.484 101.551L344.164 101.424V101.423Z" fill="black"/>
<path d="M430.94 99.628L356.588 99.7616L357.889 113.481L429.653 113.353L430.94 99.628Z" fill="#FFDD43"/>
<path d="M357.889 115.119H357.891L429.656 114.989C430.499 114.988 431.204 114.345 431.283 113.505L432.569 99.78C432.612 99.3202 432.459 98.8643 432.149 98.5237C431.838 98.1831 431.399 97.9893 430.94 97.9893H430.937L356.585 98.1229C356.124 98.1229 355.685 98.3181 355.376 98.66C355.067 99.0019 354.915 99.4565 354.958 99.915L356.26 113.635C356.34 114.476 357.046 115.118 357.89 115.118L357.889 115.119ZM429.141 101.268L428.162 111.717L359.38 111.841L358.389 101.397L429.142 101.269L429.141 101.268Z" fill="black"/>
<path d="M258.238 317.928L527.418 317.594C530.4 317.59 532.814 315.17 532.81 312.189L532.581 127.012C532.577 124.031 530.158 121.616 527.176 121.62L257.996 121.954C255.014 121.958 252.6 124.378 252.604 127.359L252.833 312.536C252.837 315.517 255.257 317.932 258.238 317.928Z" fill="white"/>
<path d="M258.23 319.565H258.24L527.42 319.231C531.299 319.226 534.452 316.066 534.447 312.186L534.217 127.01C534.215 125.13 533.481 123.364 532.15 122.037C530.822 120.711 529.057 119.983 527.181 119.983H527.172L257.992 120.317C256.112 120.32 254.346 121.053 253.019 122.384C251.692 123.715 250.963 125.482 250.965 127.362L251.194 312.538C251.197 314.418 251.931 316.184 253.262 317.511C254.59 318.837 256.355 319.565 258.23 319.565ZM255.338 124.698C256.048 123.986 256.991 123.595 257.996 123.593L527.176 123.259H527.181C528.183 123.259 529.127 123.65 529.837 124.357C530.548 125.067 530.94 126.01 530.941 127.015L531.17 312.191C531.173 314.265 529.488 315.954 527.414 315.956L258.234 316.29H258.229C257.227 316.29 256.284 315.9 255.574 315.193C254.862 314.483 254.471 313.539 254.469 312.535L254.24 127.358C254.24 126.353 254.629 125.409 255.338 124.698Z" fill="black"/>
<path d="M270.513 236.583L515.073 236.285C516.903 236.282 518.385 234.821 518.382 233.021L518.264 139.577C518.261 137.777 516.776 136.319 514.947 136.321L270.387 136.62C268.557 136.623 267.075 138.083 267.078 139.883L267.196 233.328C267.199 235.128 268.684 236.586 270.513 236.583Z" fill="white"/>
<path d="M270.509 238.221H270.516L515.077 237.922C517.807 237.918 520.025 235.719 520.022 233.019L519.904 139.574C519.9 136.875 517.681 134.684 514.954 134.684H514.947L270.387 134.982C269.069 134.984 267.83 135.492 266.897 136.412C265.957 137.339 265.441 138.572 265.442 139.886L265.56 233.331C265.564 236.029 267.784 238.221 270.51 238.221H270.509ZM269.195 138.743C269.512 138.43 269.937 138.259 270.389 138.257L514.95 137.959H514.952C515.876 137.959 516.627 138.684 516.628 139.578L516.746 233.023C516.746 233.918 515.996 234.646 515.072 234.647L270.512 234.946H270.509C269.585 234.946 268.835 234.22 268.834 233.325L268.716 139.88C268.716 139.452 268.886 139.049 269.195 138.742V138.743Z" fill="black"/>
<path d="M343.895 232.432L423.156 232.334C423.357 232.334 423.521 232.163 423.52 231.955L423.5 216.555C423.5 216.346 423.336 216.177 423.135 216.177L343.874 216.276C343.673 216.276 343.509 216.446 343.51 216.654L343.53 232.055C343.53 232.263 343.694 232.432 343.895 232.432Z" fill="black"/>
<path d="M323.089 232.458L340.145 232.437C340.353 232.437 340.522 232.267 340.522 232.059L340.502 216.658C340.502 216.45 340.332 216.281 340.124 216.281L323.068 216.302C322.967 216.302 322.871 216.341 322.8 216.413C322.73 216.485 322.69 216.58 322.69 216.681L322.71 232.081C322.71 232.289 322.88 232.458 323.089 232.458Z" fill="black"/>
<path d="M426.349 232.33L443.405 232.309C443.506 232.309 443.602 232.27 443.673 232.197C443.743 232.125 443.783 232.031 443.783 231.93L443.763 216.53C443.763 216.322 443.593 216.153 443.385 216.153L426.328 216.174C426.12 216.174 425.95 216.344 425.951 216.552L425.971 231.952C425.971 232.161 426.141 232.33 426.349 232.33Z" fill="black"/>
<path d="M306.157 232.479L319.604 232.462C319.705 232.462 319.8 232.423 319.871 232.351C319.942 232.279 319.981 232.184 319.981 232.084L319.962 216.683C319.962 216.475 319.791 216.306 319.583 216.306L306.136 216.323C306.035 216.323 305.939 216.362 305.869 216.434C305.798 216.506 305.759 216.601 305.759 216.702L305.778 232.102C305.778 232.31 305.948 232.479 306.157 232.479Z" fill="black"/>
<path d="M447.446 232.304L460.893 232.287C461.101 232.287 461.27 232.116 461.27 231.908L461.25 216.508C461.25 216.299 461.08 216.13 460.872 216.13L447.425 216.147C447.216 216.147 447.046 216.318 447.047 216.526L447.067 231.926C447.067 232.135 447.237 232.304 447.446 232.304Z" fill="black"/>
<path d="M289.501 232.5L302.949 232.483C303.049 232.483 303.145 232.444 303.216 232.372C303.287 232.3 303.326 232.205 303.326 232.104L303.306 216.704C303.306 216.496 303.136 216.327 302.928 216.327L289.48 216.344C289.272 216.344 289.103 216.514 289.103 216.722L289.123 232.123C289.123 232.331 289.293 232.5 289.501 232.5Z" fill="black"/>
<path d="M273.124 232.52L286.571 232.503C286.672 232.503 286.767 232.463 286.838 232.391C286.91 232.319 286.948 232.225 286.948 232.124L286.929 216.724C286.929 216.515 286.758 216.346 286.55 216.346L273.103 216.363C273.002 216.363 272.906 216.403 272.836 216.475C272.765 216.547 272.726 216.641 272.726 216.742L272.745 232.142C272.745 232.351 272.916 232.52 273.124 232.52Z" fill="black"/>
<path d="M273.1 213.601L290.156 213.58C290.257 213.58 290.353 213.54 290.424 213.468C290.494 213.396 290.534 213.302 290.534 213.201L290.518 200.342C290.518 200.134 290.348 199.965 290.139 199.965L273.083 199.986C272.875 199.986 272.705 200.156 272.706 200.364L272.722 213.223C272.722 213.432 272.892 213.601 273.1 213.601Z" fill="black"/>
<path d="M273.081 197.222L298.464 197.19C298.673 197.19 298.842 197.02 298.842 196.812L298.826 183.953C298.826 183.745 298.656 183.576 298.447 183.576L273.064 183.607C272.963 183.607 272.867 183.646 272.796 183.718C272.726 183.79 272.686 183.885 272.686 183.986L272.702 196.845C272.702 197.053 272.872 197.222 273.081 197.222Z" fill="black"/>
<path d="M273.06 180.844L293.902 180.818C294.11 180.818 294.28 180.648 294.279 180.439L294.263 167.58C294.263 167.372 294.093 167.203 293.885 167.203L273.043 167.229C272.834 167.229 272.665 167.4 272.665 167.608L272.681 180.467C272.681 180.675 272.851 180.844 273.06 180.844Z" fill="black"/>
<path d="M293.642 213.574L307.367 213.557C307.468 213.557 307.564 213.518 307.634 213.446C307.705 213.374 307.744 213.28 307.744 213.179L307.729 200.32C307.729 200.112 307.558 199.943 307.35 199.943L293.625 199.96C293.524 199.96 293.429 199.999 293.358 200.071C293.287 200.143 293.248 200.237 293.248 200.338L293.264 213.197C293.264 213.405 293.434 213.574 293.642 213.574Z" fill="black"/>
<path d="M310.574 213.554L324.021 213.536C324.23 213.536 324.399 213.366 324.399 213.158L324.383 200.299C324.383 200.091 324.213 199.922 324.004 199.922L310.557 199.939C310.349 199.939 310.18 200.109 310.18 200.317L310.196 213.176C310.196 213.385 310.366 213.554 310.574 213.554Z" fill="black"/>
<path d="M327.229 213.533L340.677 213.516C340.885 213.516 341.055 213.345 341.054 213.137L341.038 200.278C341.038 200.07 340.868 199.901 340.66 199.901L327.212 199.918C327.004 199.918 326.835 200.088 326.835 200.296L326.851 213.155C326.851 213.364 327.021 213.533 327.229 213.533Z" fill="black"/>
<path d="M343.883 213.513L357.331 213.496C357.431 213.496 357.527 213.457 357.598 213.385C357.669 213.312 357.708 213.218 357.708 213.117L357.692 200.258C357.692 200.05 357.522 199.881 357.314 199.881L343.866 199.898C343.766 199.898 343.67 199.937 343.599 200.009C343.528 200.082 343.489 200.176 343.489 200.277L343.505 213.136C343.505 213.344 343.675 213.513 343.882 213.513H343.883Z" fill="black"/>
<path d="M360.539 213.492L373.986 213.475C374.194 213.475 374.363 213.305 374.363 213.096L374.347 200.237C374.347 200.029 374.177 199.86 373.969 199.86L360.522 199.877C360.421 199.877 360.325 199.916 360.255 199.988C360.184 200.061 360.144 200.155 360.144 200.256L360.16 213.115C360.16 213.323 360.33 213.492 360.539 213.492Z" fill="black"/>
<path d="M377.194 213.471L390.641 213.454C390.742 213.454 390.838 213.415 390.909 213.343C390.979 213.271 391.019 213.176 391.019 213.075L391.003 200.216C391.003 200.008 390.833 199.839 390.624 199.839L377.177 199.856C376.969 199.856 376.799 200.026 376.8 200.235L376.816 213.094C376.816 213.302 376.986 213.471 377.194 213.471Z" fill="black"/>
<path d="M393.85 213.45L407.297 213.433C407.505 213.433 407.675 213.263 407.674 213.054L407.658 200.195C407.658 199.987 407.488 199.818 407.28 199.818L393.832 199.835C393.624 199.835 393.455 200.006 393.455 200.214L393.471 213.073C393.471 213.281 393.641 213.45 393.85 213.45Z" fill="black"/>
<path d="M410.504 213.43L423.951 213.413C424.052 213.413 424.147 213.374 424.218 213.302C424.289 213.23 424.328 213.136 424.328 213.035L424.312 200.176C424.312 199.968 424.142 199.799 423.934 199.799L410.486 199.816C410.278 199.816 410.108 199.986 410.109 200.194L410.125 213.053C410.125 213.261 410.295 213.43 410.504 213.43Z" fill="black"/>
<path d="M427.159 213.409L440.606 213.392C440.814 213.392 440.983 213.222 440.983 213.014L440.968 200.155C440.968 199.947 440.797 199.778 440.589 199.778L427.142 199.795C426.934 199.795 426.765 199.965 426.765 200.173L426.78 213.032C426.78 213.24 426.951 213.409 427.158 213.409H427.159Z" fill="black"/>
<path d="M443.814 213.388L457.261 213.371C457.47 213.371 457.64 213.201 457.639 212.993L457.623 200.134C457.623 199.926 457.453 199.757 457.244 199.757L443.797 199.774C443.696 199.774 443.601 199.813 443.53 199.885C443.459 199.957 443.42 200.051 443.42 200.152L443.436 213.011C443.436 213.219 443.606 213.388 443.814 213.388Z" fill="black"/>
<path d="M460.468 213.368L473.915 213.351C474.124 213.351 474.293 213.18 474.293 212.972L474.277 200.113C474.277 199.905 474.107 199.736 473.898 199.736L460.451 199.753C460.243 199.753 460.073 199.923 460.074 200.131L460.09 212.99C460.09 213.199 460.26 213.368 460.467 213.368H460.468Z" fill="black"/>
<path d="M301.949 197.469L315.674 197.452C315.775 197.452 315.87 197.413 315.941 197.341C316.013 197.269 316.051 197.175 316.051 197.074L316.035 184.215C316.035 184.007 315.865 183.838 315.657 183.838L301.932 183.855C301.724 183.855 301.555 184.025 301.555 184.233L301.57 197.092C301.57 197.3 301.741 197.469 301.949 197.469Z" fill="black"/>
<path d="M318.882 197.448L332.329 197.431C332.538 197.431 332.707 197.261 332.707 197.053L332.691 184.194C332.691 183.986 332.521 183.817 332.312 183.817L318.865 183.834C318.764 183.834 318.669 183.873 318.598 183.945C318.527 184.017 318.488 184.111 318.488 184.212L318.503 197.071C318.503 197.279 318.674 197.448 318.882 197.448Z" fill="black"/>
<path d="M335.537 197.427L348.985 197.41C349.085 197.41 349.181 197.371 349.252 197.299C349.323 197.227 349.362 197.133 349.362 197.032L349.346 184.173C349.346 183.965 349.176 183.796 348.968 183.796L335.52 183.813C335.312 183.813 335.143 183.983 335.143 184.191L335.159 197.05C335.159 197.258 335.329 197.427 335.537 197.427Z" fill="black"/>
<path d="M352.191 197.406L365.639 197.389C365.847 197.389 366.016 197.219 366.016 197.011L366 184.152C366 183.944 365.83 183.775 365.622 183.775L352.174 183.792C352.074 183.792 351.978 183.831 351.907 183.903C351.836 183.975 351.797 184.069 351.797 184.17L351.813 197.029C351.813 197.238 351.983 197.406 352.191 197.406Z" fill="black"/>
<path d="M368.847 197.386L382.294 197.369C382.502 197.369 382.671 197.198 382.671 196.99L382.656 184.131C382.656 183.923 382.485 183.754 382.277 183.754L368.83 183.771C368.622 183.771 368.453 183.941 368.453 184.149L368.468 197.008C368.468 197.217 368.639 197.386 368.847 197.386Z" fill="black"/>
<path d="M385.502 197.365L398.949 197.347C399.05 197.347 399.146 197.308 399.217 197.236C399.287 197.164 399.327 197.07 399.327 196.969L399.311 184.11C399.311 183.902 399.141 183.733 398.932 183.733L385.485 183.75C385.384 183.75 385.289 183.789 385.218 183.861C385.147 183.933 385.108 184.027 385.108 184.128L385.124 196.987C385.124 197.196 385.294 197.365 385.502 197.365Z" fill="black"/>
<path d="M402.156 197.345L415.603 197.328C415.704 197.328 415.8 197.289 415.871 197.217C415.941 197.144 415.981 197.05 415.981 196.949L415.965 184.09C415.965 183.882 415.795 183.713 415.586 183.713L402.139 183.73C401.931 183.73 401.762 183.9 401.762 184.109L401.778 196.968C401.778 197.176 401.948 197.345 402.156 197.345Z" fill="black"/>
<path d="M418.812 197.324L432.259 197.307C432.467 197.307 432.637 197.137 432.636 196.928L432.62 184.069C432.62 183.861 432.45 183.692 432.242 183.692L418.795 183.709C418.586 183.709 418.417 183.879 418.417 184.088L418.433 196.947C418.433 197.155 418.603 197.324 418.812 197.324Z" fill="black"/>
<path d="M435.467 197.303L448.914 197.286C449.122 197.286 449.291 197.116 449.291 196.907L449.276 184.048C449.276 183.84 449.105 183.671 448.897 183.671L435.45 183.688C435.349 183.688 435.253 183.727 435.183 183.8C435.112 183.872 435.073 183.966 435.073 184.067L435.088 196.926C435.088 197.134 435.259 197.303 435.467 197.303Z" fill="black"/>
<path d="M452.121 197.282L465.568 197.265C465.776 197.265 465.945 197.095 465.945 196.886L465.93 184.028C465.93 183.819 465.759 183.65 465.551 183.65L452.104 183.667C452.003 183.667 451.907 183.707 451.837 183.779C451.766 183.851 451.727 183.945 451.727 184.046L451.742 196.905C451.742 197.113 451.913 197.282 452.121 197.282Z" fill="black"/>
<path d="M468.776 197.262L482.223 197.245C482.432 197.245 482.601 197.075 482.601 196.867L482.585 184.008C482.585 183.8 482.415 183.631 482.206 183.631L468.759 183.648C468.658 183.648 468.563 183.687 468.492 183.759C468.421 183.831 468.382 183.925 468.382 184.026L468.398 196.885C468.398 197.093 468.568 197.262 468.776 197.262Z" fill="black"/>
<path d="M485.154 197.241L498.601 197.224C498.809 197.224 498.98 197.054 498.978 196.846L498.963 183.987C498.963 183.779 498.792 183.61 498.584 183.61L485.137 183.627C484.928 183.627 484.76 183.797 484.76 184.005L484.775 196.864C484.775 197.072 484.946 197.241 485.154 197.241Z" fill="black"/>
<path d="M297.209 180.814L310.934 180.797C311.035 180.797 311.131 180.758 311.202 180.686C311.272 180.614 311.312 180.519 311.312 180.418L311.296 167.559C311.296 167.351 311.126 167.182 310.917 167.182L297.192 167.199C297.092 167.199 296.996 167.239 296.925 167.311C296.854 167.383 296.815 167.477 296.815 167.578L296.831 180.437C296.831 180.645 297.001 180.814 297.209 180.814Z" fill="black"/>
<path d="M314.143 180.793L327.59 180.776C327.691 180.776 327.786 180.737 327.857 180.665C327.928 180.593 327.967 180.498 327.967 180.397L327.951 167.539C327.951 167.33 327.781 167.161 327.573 167.161L314.126 167.178C314.025 167.178 313.929 167.218 313.858 167.29C313.788 167.362 313.748 167.456 313.748 167.557L313.764 180.416C313.764 180.624 313.934 180.793 314.143 180.793Z" fill="black"/>
<path d="M330.798 180.772L344.245 180.755C344.346 180.755 344.442 180.716 344.512 180.644C344.583 180.572 344.622 180.477 344.622 180.376L344.607 167.518C344.607 167.309 344.436 167.14 344.228 167.14L330.781 167.157C330.573 167.157 330.404 167.328 330.404 167.536L330.419 180.395C330.419 180.603 330.59 180.772 330.798 180.772Z" fill="black"/>
<path d="M347.452 180.751L360.899 180.734C361 180.734 361.096 180.695 361.166 180.623C361.237 180.551 361.276 180.456 361.276 180.356L361.261 167.497C361.261 167.288 361.09 167.119 360.882 167.119L347.435 167.136C347.334 167.136 347.238 167.176 347.168 167.248C347.097 167.32 347.058 167.414 347.058 167.515L347.073 180.374C347.073 180.582 347.244 180.751 347.452 180.751Z" fill="black"/>
<path d="M364.107 180.732L377.554 180.714C377.763 180.714 377.933 180.544 377.932 180.336L377.916 167.477C377.916 167.269 377.746 167.1 377.537 167.1L364.09 167.117C363.989 167.117 363.894 167.156 363.823 167.228C363.752 167.3 363.713 167.394 363.713 167.495L363.729 180.354C363.729 180.563 363.899 180.732 364.107 180.732Z" fill="black"/>
<path d="M380.763 180.711L394.21 180.693C394.311 180.693 394.406 180.654 394.477 180.582C394.549 180.51 394.587 180.416 394.587 180.315L394.571 167.456C394.571 167.248 394.401 167.079 394.193 167.079L380.746 167.096C380.645 167.096 380.549 167.135 380.478 167.207C380.408 167.279 380.368 167.373 380.368 167.474L380.384 180.333C380.384 180.542 380.554 180.711 380.763 180.711Z" fill="black"/>
<path d="M397.417 180.69L410.864 180.673C410.965 180.673 411.06 180.633 411.131 180.561C411.202 180.489 411.241 180.395 411.241 180.294L411.225 167.435C411.225 167.227 411.055 167.058 410.847 167.058L397.4 167.075C397.299 167.075 397.203 167.114 397.132 167.186C397.062 167.258 397.022 167.352 397.022 167.453L397.038 180.312C397.038 180.521 397.208 180.69 397.417 180.69Z" fill="black"/>
<path d="M414.072 180.669L427.519 180.652C427.62 180.652 427.716 180.612 427.786 180.54C427.857 180.468 427.896 180.374 427.896 180.273L427.881 167.414C427.881 167.206 427.71 167.037 427.502 167.037L414.055 167.054C413.954 167.054 413.858 167.093 413.788 167.165C413.717 167.237 413.678 167.332 413.678 167.432L413.693 180.291C413.693 180.5 413.864 180.669 414.072 180.669Z" fill="black"/>
<path d="M430.727 180.649L444.174 180.632C444.275 180.632 444.371 180.593 444.442 180.521C444.512 180.449 444.552 180.354 444.552 180.253L444.536 167.394C444.536 167.186 444.366 167.017 444.157 167.017L430.71 167.034C430.502 167.034 430.333 167.204 430.333 167.413L430.349 180.272C430.349 180.48 430.519 180.649 430.727 180.649Z" fill="black"/>
<path d="M447.381 180.628L460.828 180.611C460.929 180.611 461.025 180.572 461.096 180.5C461.166 180.428 461.206 180.333 461.206 180.232L461.19 167.373C461.19 167.165 461.02 166.996 460.811 166.996L447.364 167.013C447.156 167.013 446.987 167.183 446.987 167.392L447.003 180.251C447.003 180.459 447.173 180.628 447.381 180.628Z" fill="black"/>
<path d="M464.037 180.607L477.484 180.59C477.692 180.59 477.861 180.42 477.861 180.211L477.845 167.353C477.845 167.144 477.675 166.975 477.467 166.975L464.02 166.992C463.919 166.992 463.823 167.032 463.752 167.104C463.682 167.176 463.642 167.27 463.642 167.371L463.658 180.23C463.658 180.438 463.828 180.607 464.037 180.607Z" fill="black"/>
<path d="M480.414 180.587L493.861 180.57C493.962 180.57 494.058 180.531 494.129 180.459C494.199 180.387 494.239 180.293 494.239 180.192L494.223 167.333C494.223 167.125 494.053 166.956 493.844 166.956L480.397 166.973C480.296 166.973 480.201 167.012 480.13 167.084C480.059 167.156 480.02 167.25 480.02 167.351L480.036 180.21C480.036 180.418 480.206 180.587 480.414 180.587Z" fill="black"/>
<path d="M498.209 180.564L503.263 180.56L503.283 195.951C503.283 196.651 503.904 197.219 504.665 197.219H504.666L510.766 197.211C511.14 197.211 511.49 197.075 511.752 196.829C512.006 196.589 512.146 196.273 512.146 195.939L512.112 168.201C512.112 167.502 511.491 166.933 510.729 166.933L498.194 166.948C497.82 166.948 497.469 167.084 497.207 167.33C496.953 167.57 496.813 167.886 496.813 168.22L496.826 179.297C496.826 179.997 497.447 180.565 498.209 180.565V180.564Z" fill="black"/>
<path d="M289.973 164.727L303.698 164.71C303.906 164.71 304.077 164.54 304.075 164.332L304.059 151.473C304.059 151.264 303.889 151.095 303.681 151.095L289.956 151.112C289.748 151.112 289.577 151.283 289.579 151.491L289.594 164.35C289.594 164.558 289.765 164.727 289.973 164.727Z" fill="black"/>
<path d="M273.318 164.748L287.043 164.731C287.143 164.731 287.239 164.692 287.31 164.62C287.381 164.548 287.42 164.453 287.42 164.353L287.404 151.494C287.404 151.285 287.234 151.116 287.026 151.116L273.301 151.133C273.2 151.133 273.104 151.173 273.033 151.245C272.963 151.317 272.923 151.411 272.923 151.512L272.939 164.371C272.939 164.579 273.109 164.748 273.318 164.748Z" fill="black"/>
<path d="M273.399 147.806L287.463 147.789C287.671 147.789 287.842 147.619 287.84 147.41L287.832 141.328C287.832 141.12 287.662 140.951 287.454 140.951L273.39 140.968C273.289 140.968 273.193 141.007 273.122 141.079C273.052 141.151 273.012 141.245 273.012 141.346L273.02 147.429C273.02 147.637 273.191 147.806 273.399 147.806Z" fill="black"/>
<path d="M290.425 147.785L304.489 147.768C304.59 147.768 304.686 147.729 304.756 147.657C304.827 147.585 304.866 147.49 304.866 147.389L304.859 141.307C304.859 141.099 304.688 140.93 304.48 140.93L290.416 140.947C290.315 140.947 290.219 140.986 290.149 141.058C290.076 141.13 290.039 141.224 290.039 141.325L290.046 147.408C290.046 147.616 290.217 147.785 290.425 147.785Z" fill="black"/>
<path d="M307.451 147.764L321.515 147.747C321.616 147.747 321.712 147.708 321.782 147.636C321.853 147.564 321.892 147.469 321.892 147.368L321.885 141.286C321.885 141.078 321.714 140.909 321.506 140.909L307.442 140.926C307.341 140.926 307.245 140.965 307.175 141.037C307.104 141.109 307.065 141.204 307.065 141.304L307.072 147.387C307.072 147.595 307.243 147.764 307.451 147.764Z" fill="black"/>
<path d="M324.477 147.743L338.541 147.726C338.75 147.726 338.919 147.556 338.919 147.347L338.911 141.265C338.911 141.057 338.74 140.888 338.532 140.888L324.468 140.905C324.26 140.905 324.091 141.075 324.091 141.284L324.099 147.366C324.099 147.574 324.269 147.743 324.477 147.743Z" fill="black"/>
<path d="M341.502 147.722L355.566 147.705C355.774 147.705 355.943 147.535 355.943 147.326L355.935 141.244C355.935 141.036 355.765 140.867 355.557 140.867L341.493 140.884C341.392 140.884 341.296 140.923 341.225 140.995C341.155 141.067 341.115 141.162 341.115 141.263L341.123 147.345C341.123 147.553 341.294 147.722 341.502 147.722Z" fill="black"/>
<path d="M358.528 147.701L372.592 147.684C372.693 147.684 372.789 147.645 372.859 147.573C372.93 147.501 372.969 147.406 372.969 147.306L372.962 141.223C372.962 141.015 372.791 140.846 372.583 140.846L358.519 140.863C358.418 140.863 358.322 140.902 358.252 140.974C358.181 141.046 358.142 141.141 358.142 141.242L358.149 147.324C358.149 147.532 358.32 147.701 358.528 147.701Z" fill="black"/>
<path d="M375.554 147.68L389.618 147.663C389.719 147.663 389.815 147.624 389.885 147.552C389.956 147.48 389.995 147.385 389.995 147.285L389.988 141.202C389.988 140.994 389.817 140.825 389.609 140.825L375.545 140.842C375.444 140.842 375.348 140.881 375.278 140.953C375.207 141.025 375.168 141.12 375.168 141.221L375.175 147.303C375.175 147.511 375.346 147.68 375.554 147.68Z" fill="black"/>
<path d="M392.58 147.659L406.644 147.642C406.853 147.642 407.023 147.472 407.022 147.264L407.014 141.181C407.014 140.973 406.843 140.804 406.635 140.804L392.571 140.821C392.363 140.821 392.194 140.991 392.194 141.2L392.202 147.282C392.202 147.49 392.372 147.659 392.58 147.659Z" fill="black"/>
<path d="M409.606 147.637L423.67 147.62C423.771 147.62 423.867 147.581 423.938 147.509C424.008 147.437 424.048 147.342 424.048 147.241L424.04 141.159C424.04 140.951 423.869 140.782 423.661 140.782L409.597 140.799C409.389 140.799 409.22 140.969 409.22 141.177L409.228 147.26C409.228 147.468 409.398 147.637 409.606 147.637Z" fill="black"/>
<path d="M426.631 147.616L440.695 147.599C440.796 147.599 440.892 147.56 440.962 147.488C441.034 147.416 441.072 147.321 441.072 147.22L441.065 141.138C441.065 140.93 440.894 140.761 440.686 140.761L426.622 140.778C426.413 140.778 426.243 140.948 426.245 141.156L426.252 147.239C426.252 147.447 426.423 147.616 426.631 147.616Z" fill="black"/>
<path d="M443.657 147.595L457.721 147.578C457.929 147.578 458.1 147.408 458.098 147.199L458.091 141.117C458.091 140.909 457.92 140.74 457.712 140.74L443.648 140.757C443.547 140.757 443.451 140.796 443.381 140.868C443.31 140.94 443.271 141.035 443.271 141.135L443.278 147.218C443.278 147.426 443.449 147.595 443.657 147.595Z" fill="black"/>
<path d="M460.683 147.574L474.747 147.557C474.848 147.557 474.944 147.518 475.014 147.446C475.085 147.374 475.125 147.279 475.125 147.178L475.117 141.096C475.117 140.888 474.946 140.719 474.738 140.719L460.674 140.736C460.466 140.736 460.295 140.906 460.297 141.114L460.305 147.197C460.305 147.405 460.475 147.574 460.683 147.574Z" fill="black"/>
<path d="M477.709 147.553L491.773 147.536C491.982 147.536 492.152 147.366 492.151 147.158L492.143 141.075C492.143 140.867 491.972 140.698 491.764 140.698L477.7 140.715C477.599 140.715 477.503 140.754 477.433 140.826C477.362 140.898 477.323 140.993 477.323 141.094L477.331 147.176C477.331 147.384 477.501 147.553 477.709 147.553Z" fill="black"/>
<path d="M494.975 147.531L511.696 147.511C511.797 147.511 511.892 147.472 511.963 147.4C512.034 147.328 512.073 147.233 512.073 147.133L512.065 141.05C512.065 140.842 511.895 140.673 511.687 140.673L494.966 140.693C494.865 140.693 494.769 140.732 494.699 140.804C494.628 140.876 494.589 140.97 494.589 141.071L494.596 147.154C494.596 147.362 494.767 147.531 494.975 147.531Z" fill="black"/>
<path d="M306.905 164.706L320.352 164.689C320.453 164.689 320.548 164.65 320.619 164.578C320.69 164.506 320.729 164.412 320.729 164.311L320.714 151.452C320.714 151.243 320.543 151.074 320.335 151.074L306.888 151.091C306.787 151.091 306.691 151.131 306.621 151.203C306.548 151.275 306.51 151.369 306.51 151.47L306.526 164.329C306.526 164.537 306.697 164.706 306.905 164.706Z" fill="black"/>
<path d="M323.56 164.685L337.007 164.668C337.108 164.668 337.204 164.629 337.274 164.557C337.345 164.485 337.385 164.391 337.385 164.29L337.369 151.431C337.369 151.222 337.199 151.053 336.99 151.053L323.543 151.07C323.442 151.07 323.347 151.11 323.276 151.182C323.205 151.254 323.166 151.348 323.166 151.449L323.182 164.308C323.182 164.516 323.352 164.685 323.56 164.685Z" fill="black"/>
<path d="M340.215 164.664L353.663 164.647C353.763 164.647 353.859 164.608 353.93 164.536C354.001 164.464 354.04 164.37 354.04 164.269L354.024 151.41C354.024 151.201 353.854 151.032 353.646 151.032L340.198 151.05C339.99 151.05 339.82 151.22 339.821 151.428L339.837 164.287C339.837 164.495 340.007 164.664 340.215 164.664Z" fill="black"/>
<path d="M356.869 164.645L370.317 164.628C370.417 164.628 370.513 164.588 370.584 164.516C370.655 164.444 370.694 164.35 370.694 164.249L370.678 151.39C370.678 151.182 370.508 151.013 370.3 151.013L356.852 151.03C356.644 151.03 356.474 151.2 356.475 151.409L356.491 164.267C356.491 164.476 356.661 164.645 356.869 164.645Z" fill="black"/>
<path d="M373.525 164.624L386.972 164.607C387.18 164.607 387.349 164.436 387.349 164.228L387.334 151.369C387.334 151.161 387.163 150.992 386.955 150.992L373.508 151.009C373.407 151.009 373.311 151.048 373.241 151.12C373.17 151.192 373.131 151.287 373.131 151.388L373.146 164.246C373.146 164.455 373.317 164.624 373.525 164.624Z" fill="black"/>
<path d="M390.18 164.603L403.627 164.586C403.728 164.586 403.824 164.546 403.895 164.474C403.965 164.402 404.005 164.308 404.005 164.207L403.989 151.348C403.989 151.14 403.819 150.971 403.61 150.971L390.163 150.988C390.062 150.988 389.967 151.027 389.896 151.099C389.825 151.171 389.786 151.266 389.786 151.367L389.802 164.226C389.802 164.434 389.972 164.603 390.18 164.603Z" fill="black"/>
<path d="M406.834 164.582L420.281 164.565C420.49 164.565 420.66 164.394 420.659 164.186L420.643 151.327C420.643 151.119 420.473 150.95 420.264 150.95L406.817 150.967C406.716 150.967 406.621 151.006 406.55 151.078C406.479 151.15 406.44 151.245 406.44 151.346L406.456 164.205C406.456 164.413 406.626 164.582 406.834 164.582Z" fill="black"/>
<path d="M423.49 164.562L436.937 164.545C437.038 164.545 437.133 164.506 437.204 164.434C437.275 164.362 437.314 164.267 437.314 164.167L437.298 151.308C437.298 151.099 437.128 150.93 436.92 150.93L423.472 150.947C423.372 150.947 423.276 150.987 423.205 151.059C423.134 151.131 423.095 151.225 423.095 151.326L423.111 164.185C423.111 164.393 423.281 164.562 423.49 164.562Z" fill="black"/>
<path d="M440.145 164.541L453.592 164.524C453.693 164.524 453.789 164.485 453.859 164.413C453.93 164.341 453.969 164.246 453.969 164.146L453.954 151.287C453.954 151.078 453.783 150.909 453.575 150.909L440.128 150.926C440.027 150.926 439.931 150.966 439.861 151.038C439.79 151.11 439.751 151.204 439.751 151.305L439.766 164.164C439.766 164.372 439.937 164.541 440.145 164.541Z" fill="black"/>
<path d="M456.8 164.52L470.247 164.503C470.348 164.503 470.444 164.464 470.515 164.392C470.585 164.32 470.625 164.226 470.625 164.125L470.609 151.266C470.609 151.057 470.439 150.888 470.23 150.888L456.783 150.905C456.575 150.905 456.405 151.076 456.406 151.284L456.422 164.143C456.422 164.351 456.592 164.52 456.8 164.52Z" fill="black"/>
<path d="M473.177 164.501L486.624 164.484C486.832 164.484 487.002 164.313 487.001 164.105L486.985 151.246C486.985 151.038 486.815 150.869 486.607 150.869L473.159 150.886C473.059 150.886 472.963 150.925 472.892 150.997C472.822 151.069 472.782 151.164 472.782 151.264L472.798 164.123C472.798 164.332 472.968 164.501 473.177 164.501Z" fill="black"/>
<path d="M489.922 164.478L511.729 164.453C511.966 164.453 512.16 164.283 512.158 164.075L512.143 151.216C512.143 151.008 511.949 150.839 511.712 150.839L489.905 150.864C489.786 150.864 489.675 150.907 489.592 150.984C489.516 151.055 489.476 151.146 489.476 151.242L489.491 164.101C489.491 164.309 489.685 164.478 489.921 164.478H489.922Z" fill="black"/>
<path d="M476.898 213.348L511.736 213.305C511.856 213.305 511.967 213.261 512.049 213.184C512.125 213.113 512.166 213.022 512.166 212.926L512.15 200.067C512.15 199.859 511.956 199.69 511.719 199.69L476.881 199.733C476.762 199.733 476.651 199.776 476.568 199.854C476.493 199.924 476.452 200.016 476.452 200.112L476.467 212.971C476.467 213.179 476.661 213.348 476.898 213.348Z" fill="black"/>
<path d="M464.423 232.429L477.836 232.412C477.907 232.412 477.974 232.385 478.025 232.334C478.075 232.284 478.102 232.217 478.102 232.145L478.093 225.226C478.093 225.079 477.974 224.96 477.826 224.96L464.413 224.977C464.342 224.977 464.275 225.004 464.224 225.055C464.174 225.105 464.145 225.173 464.147 225.244L464.156 232.163C464.156 232.31 464.275 232.429 464.423 232.429Z" fill="black"/>
<path d="M498.511 232.387L511.925 232.37C512.072 232.37 512.191 232.251 512.191 232.103L512.182 225.184C512.182 225.037 512.061 224.918 511.915 224.918L498.501 224.935C498.431 224.935 498.364 224.962 498.313 225.013C498.262 225.065 498.236 225.131 498.236 225.202L498.245 232.122C498.245 232.268 498.364 232.387 498.511 232.387Z" fill="black"/>
<path d="M481.466 232.408L494.881 232.391C494.951 232.391 495.018 232.364 495.069 232.313C495.12 232.262 495.147 232.195 495.147 232.124L495.137 225.205C495.137 225.058 495.018 224.939 494.87 224.939L481.456 224.956C481.385 224.956 481.318 224.983 481.267 225.034C481.216 225.085 481.188 225.152 481.19 225.223L481.199 232.142C481.199 232.289 481.318 232.408 481.465 232.408H481.466Z" fill="black"/>
<path d="M481.456 223.428L494.87 223.411C494.941 223.411 495.008 223.384 495.059 223.333C495.109 223.283 495.136 223.215 495.136 223.144L495.127 216.225C495.127 216.078 495.008 215.959 494.86 215.959L481.447 215.976C481.376 215.976 481.309 216.003 481.258 216.054C481.208 216.104 481.179 216.172 481.181 216.243L481.19 223.162C481.19 223.309 481.309 223.428 481.456 223.428Z" fill="black"/>
<path d="M351.647 308.087L436.379 307.982C437.073 307.982 437.635 307.418 437.634 306.723L437.558 245.951C437.558 245.257 436.993 244.695 436.299 244.696L351.567 244.801C350.872 244.801 350.31 245.366 350.312 246.06L350.388 306.832C350.388 307.526 350.952 308.088 351.647 308.087Z" fill="white"/>
<path d="M351.645 309.725H351.648L436.38 309.62C437.153 309.62 437.88 309.317 438.426 308.77C438.972 308.222 439.272 307.495 439.271 306.722L439.195 245.95C439.195 245.177 438.893 244.45 438.345 243.904C437.799 243.359 437.073 243.059 436.301 243.059H436.297L351.565 243.163C349.97 243.166 348.673 244.466 348.674 246.061L348.75 306.833C348.753 308.428 350.051 309.725 351.645 309.725ZM435.921 246.334L435.996 306.345L352.025 306.448L351.95 246.437L435.921 246.334Z" fill="black"/>
<path d="M497.142 121.671L293.263 121.92L293.273 130.109L497.152 129.86L497.142 121.671Z" fill="black"/>
<path d="M331.12 180.958C332.265 176.021 328.053 174.382 326.451 174.916C324.848 175.451 312.164 192.581 310.561 194.717C308.957 196.854 299.875 216.624 299.341 220.364C298.806 224.104 299.805 240.572 299.341 245.477C298.174 257.828 317.51 250.476 320.981 245.618C324.451 240.761 320.286 213.001 321.328 208.143C322.369 203.286 330.396 184.085 331.12 180.96V180.958Z" fill="white"/>
<path d="M236.378 398.574H305.029C305.029 398.574 325.725 330.952 331.069 324.006C336.412 317.061 350.207 307.711 355.016 302.902C359.825 298.093 373.142 279.118 373.142 273.24C373.142 267.362 378.42 251.888 378.42 247.614C378.42 243.339 377.811 234.639 377.811 229.296C377.811 223.952 376.532 220.857 370.121 223.528C363.71 226.199 363.994 240.667 363.46 243.874C362.926 247.079 357.488 264.176 357.488 264.176C357.488 264.176 357.049 258.834 357.049 256.697C357.049 254.561 357.228 236.302 357.763 231.493C358.297 226.684 362.157 207.873 362.157 207.873C362.157 207.873 365.559 199.896 366.093 195.087C366.628 190.278 363.903 186.999 361.709 186.803C359.086 186.57 356.051 189.492 353.913 192.163C351.775 194.834 345.34 212.052 345.34 214.189C345.34 216.326 339.301 234.787 337.164 234.787C335.028 234.787 339.534 212.487 339.534 212.487L345.492 189.811C345.492 189.811 347.906 183.118 348.567 180.395C349.76 175.468 345.677 171.431 343.481 171.618C339.727 171.939 337.36 174.859 334.154 180.202C330.948 185.546 324.975 202.356 323.982 207.322C322.883 212.815 321.235 225.999 319.313 232.589L312.315 193.516C313.384 190.31 309.525 188.757 306.243 191.874C302.486 195.444 295.939 210.996 294.87 214.737C293.801 218.477 293.334 238.733 292.398 252.637C291.895 260.101 295.069 293.027 293.467 301.042C291.863 309.057 246.535 387.35 236.382 398.57L236.378 398.574Z" fill="white"/>
<path d="M266.711 347.783C251.986 373.064 239.602 392.569 235.164 397.475C234.729 397.956 234.619 398.646 234.881 399.238C235.143 399.83 235.73 400.212 236.378 400.212H305.029C305.748 400.212 306.383 399.741 306.594 399.054C312.327 380.324 328.132 330.509 332.366 325.004C335.575 320.832 342.023 315.701 347.713 311.175C351.246 308.363 354.297 305.936 356.173 304.06C358.764 301.469 363.425 295.287 367.256 289.361C370.689 284.053 374.778 276.947 374.778 273.24C374.778 270.275 376.32 264.292 377.68 259.014C378.956 254.064 380.058 249.788 380.058 247.614C380.058 245.558 379.922 242.54 379.777 239.345C379.616 235.772 379.449 232.08 379.449 229.296C379.449 226.512 379.141 223.224 376.863 221.704C375.149 220.562 372.737 220.664 369.491 222.016C363.3 224.596 362.505 235.315 362.078 241.074C361.997 242.163 361.927 243.102 361.844 243.604C361.599 245.071 360.158 249.985 358.696 254.779C358.744 249.311 358.948 235.631 359.389 231.673C359.882 227.225 363.353 210.191 363.727 208.361C364.224 207.178 367.201 199.939 367.72 195.267C368.05 192.291 367.3 189.434 365.658 187.428C364.568 186.096 363.216 185.294 361.853 185.174C358.424 184.868 354.946 188.251 352.633 191.141C351.107 193.048 348.391 199.924 347.295 202.792C346.452 204.995 343.701 212.331 343.701 214.178C343.671 214.919 342.524 219.094 340.794 223.948C339.832 226.654 339.017 228.659 338.362 230.107C338.515 228.426 338.816 226.01 339.376 222.547C340.139 217.814 341.029 213.354 341.129 212.858L347.055 190.298C347.329 189.539 349.511 183.441 350.156 180.781C350.857 177.891 350.088 174.784 348.1 172.468C346.655 170.783 344.875 169.857 343.34 169.988C338.497 170.402 335.678 174.479 332.747 179.363C329.476 184.813 323.4 201.871 322.373 207.004C321.996 208.887 321.569 211.579 321.074 214.696C320.142 220.562 318.983 227.863 317.737 232.133C317.484 233.002 317.982 233.911 318.851 234.164C319.718 234.417 320.628 233.919 320.881 233.05C322.185 228.581 323.362 221.167 324.308 215.209C324.798 212.127 325.22 209.465 325.584 207.645C326.548 202.823 332.486 186.16 335.554 181.047C338.957 175.378 340.916 173.483 343.618 173.251C343.824 173.232 344.685 173.52 345.613 174.602C346.239 175.332 347.623 177.319 346.971 180.011C346.34 182.617 343.971 189.191 343.948 189.257C343.931 189.303 343.916 189.35 343.904 189.397L337.947 212.073C337.939 212.103 337.932 212.134 337.926 212.165C337.915 212.216 336.881 217.346 336.044 222.633C335.549 225.759 335.218 228.337 335.059 230.291C334.771 233.843 335.07 234.992 335.645 235.695C336.025 236.16 336.578 236.426 337.16 236.426C338.63 236.426 339.647 234.959 340.809 232.593C341.848 230.479 342.893 227.759 343.589 225.852C344.99 221.999 346.965 215.849 346.974 214.203C347.016 213.514 348.133 209.745 350.409 203.811C352.774 197.642 354.513 194.031 355.187 193.188C357.637 190.126 360.079 188.306 361.559 188.437C361.901 188.467 362.516 188.764 363.121 189.503C363.634 190.132 364.795 191.916 364.462 194.907C363.96 199.417 360.679 207.154 360.646 207.232C360.603 207.332 360.57 207.437 360.548 207.545C360.389 208.316 356.666 226.485 356.131 231.313C355.574 236.325 355.406 254.86 355.406 256.698C355.406 258.878 355.833 264.091 355.852 264.312C355.916 265.092 356.522 265.716 357.299 265.806C358.076 265.895 358.807 265.42 359.044 264.675C359.268 263.973 364.524 247.429 365.071 244.145C365.179 243.496 365.251 242.536 365.341 241.319C365.69 236.621 366.414 226.847 370.748 225.042C372.816 224.18 374.341 223.964 375.043 224.432C375.791 224.931 376.171 226.568 376.171 229.298C376.171 232.028 376.34 235.886 376.502 239.495C376.645 242.653 376.78 245.635 376.78 247.616C376.78 249.376 375.625 253.862 374.507 258.2C373.03 263.934 371.502 269.861 371.502 273.241C371.502 275.445 368.886 280.806 364.504 287.584C360.782 293.34 356.304 299.297 353.855 301.745C352.11 303.49 348.983 305.979 345.672 308.614C339.836 313.258 333.223 318.52 329.768 323.009C328.914 324.119 327.305 326.884 323.206 338.025C320.818 344.516 317.885 353.048 314.487 363.386C309.576 378.329 305.086 392.818 303.817 396.939H239.804C246.497 388.043 259.54 366.601 269.54 349.435C276.074 338.217 282.181 327.36 286.736 318.864C288.642 315.309 294.443 304.491 295.066 301.369C296.067 296.361 295.314 282.646 294.65 270.545C294.229 262.882 293.831 255.644 294.026 252.754C294.361 247.767 294.637 241.996 294.901 236.416C295.345 227.073 295.804 217.413 296.438 215.192C297.533 211.361 303.959 196.303 307.365 193.068C308.811 191.694 310.123 191.674 310.611 191.983C310.877 192.152 310.925 192.495 310.755 193.004C310.469 193.862 310.933 194.789 311.791 195.075C312.649 195.36 313.577 194.897 313.862 194.038C314.518 192.07 313.946 190.222 312.369 189.219C311.382 188.592 310.117 188.394 308.803 188.662C307.507 188.927 306.23 189.629 305.11 190.693C302.858 192.832 300.032 198.325 298.06 202.555C295.774 207.456 293.839 212.371 293.29 214.292C292.551 216.878 292.124 225.86 291.63 236.26C291.366 241.823 291.093 247.578 290.759 252.533C290.551 255.623 290.936 262.62 291.38 270.723C292.002 282.04 292.775 296.126 291.855 300.726C291.169 304.158 280.593 323.95 266.71 347.785L266.711 347.783Z" fill="black"/>
<path d="M325.272 200.104C325.605 198.996 326.979 195.596 328.307 192.311C330.779 186.196 332.294 182.395 332.465 181.189C333.001 177.44 331.112 175.311 329.938 174.377C328.315 173.084 326.188 172.565 324.764 173.113C321.203 174.483 317.664 179.769 314.343 185.065C313.984 185.639 313.672 186.134 313.398 186.557C311.694 189.193 306.677 206.177 306.154 209.838C305.929 211.42 305.792 215.085 305.635 219.329C305.414 225.328 305.137 232.792 304.528 235.533C304.332 236.416 304.889 237.291 305.772 237.486C305.891 237.512 306.011 237.525 306.128 237.525C306.878 237.525 307.556 237.005 307.725 236.243C308.398 233.211 308.669 225.9 308.908 219.451C309.054 215.473 309.195 211.714 309.395 210.304C309.948 206.432 314.934 190.215 316.148 188.337C316.435 187.895 316.765 187.367 317.116 186.806C319.203 183.479 323.083 177.29 325.921 176.177C326.198 176.122 327.223 176.31 328.094 177.108C329.059 177.991 329.439 179.208 329.222 180.725C329.073 181.677 326.784 187.338 325.27 191.083C323.789 194.746 322.509 197.91 322.133 199.163C321.329 201.844 319.905 208.014 319.605 210.416C319.323 212.672 319.565 221.724 319.593 222.749C319.618 223.652 320.37 224.362 321.275 224.34C322.179 224.315 322.892 223.562 322.867 222.658C322.791 219.942 322.643 212.523 322.855 210.822C323.112 208.771 324.443 202.861 325.271 200.104H325.272Z" fill="black"/>
<path d="M592.591 263.453L604.332 262.334C616.215 261.202 624.805 249.347 623.673 237.465L619.547 194.164C618.415 182.281 607.74 172.262 595.857 173.396L584.115 174.514C572.232 175.646 563.642 187.502 564.774 199.383L568.901 242.684C570.033 254.567 580.708 264.586 592.591 263.453Z" fill="white"/>
<path d="M575.621 259.168C579.993 263.083 585.292 265.178 590.731 265.178C591.4 265.178 592.073 265.147 592.745 265.082L604.487 263.964C610.62 263.379 616.196 260.169 620.186 254.922C624.023 249.876 625.888 243.457 625.303 237.309L621.176 194.008C620.591 187.861 617.546 181.909 612.825 177.679C607.915 173.28 601.833 171.18 595.701 171.765L583.959 172.883C577.826 173.468 572.251 176.68 568.26 181.925C564.423 186.971 562.558 193.39 563.143 199.538L567.27 242.839C567.855 248.986 570.9 254.938 575.621 259.168ZM570.867 183.908C574.298 179.398 579.057 176.64 584.27 176.144L596.011 175.025C596.577 174.971 597.143 174.944 597.708 174.944C602.341 174.944 606.878 176.748 610.64 180.118C614.756 183.806 617.408 188.982 617.916 194.319L622.042 237.62C622.551 242.958 620.924 248.541 617.579 252.939C614.148 257.449 609.389 260.207 604.177 260.703L592.435 261.822C587.224 262.318 582.027 260.509 577.806 256.729C573.69 253.041 571.039 247.865 570.53 242.528L566.404 199.227C565.896 193.889 567.523 188.306 570.867 183.908Z" fill="black"/>
<path d="M591.27 194.797L593.976 194.475C594.942 194.359 595.634 193.482 595.519 192.515L594.473 183.73C594.358 182.763 593.48 182.072 592.514 182.187L589.808 182.509C588.842 182.624 588.15 183.502 588.265 184.469L589.311 193.254C589.426 194.221 590.304 194.912 591.27 194.797Z" fill="white"/>
<path d="M591.06 196.448C591.193 196.448 591.328 196.44 591.464 196.424L594.169 196.102C596.032 195.88 597.366 194.185 597.144 192.322L596.099 183.538C595.878 181.676 594.183 180.341 592.32 180.563L589.615 180.885C587.752 181.106 586.418 182.801 586.64 184.664L587.685 193.449C587.891 195.176 589.363 196.449 591.06 196.449V196.448ZM590.002 184.136L592.707 183.814C592.707 183.814 592.718 183.814 592.722 183.814C592.785 183.814 592.84 183.861 592.848 183.925L593.893 192.71C593.901 192.78 593.851 192.842 593.783 192.85L591.078 193.173C591.006 193.182 590.946 193.131 590.938 193.063L589.892 184.278C589.884 184.208 589.934 184.145 590.002 184.138V184.136Z" fill="black"/>
<path d="M630.7 222.56C629.91 218.921 624.296 207.403 623.157 205.914C621.941 204.323 617.662 200.499 616.455 199.724C614.66 198.57 605.175 237.794 612.61 245.229C620.045 252.664 627.808 253.76 627.58 250.392C627.58 250.392 627.333 245.82 628.634 240.359C629.36 237.312 631.198 224.848 630.701 222.561L630.7 222.56Z" fill="white"/>
<path d="M562.357 224.007C560.001 224.007 559.057 232.965 557.643 235.322C556.228 237.679 552.629 242.608 551.214 245.908C549.8 249.208 552.928 262.665 556.699 271.152C560.471 279.638 575.557 299.438 577.914 306.51C580.27 313.581 581.052 386.935 580.606 399.664C580.264 409.368 629.279 404.524 628.563 400.607C627.544 395.023 622.23 323.009 621.758 304.623C626.944 294.252 629.301 271.152 630.716 264.08C632.131 257.009 634.956 249.721 636.374 245.694C637.35 242.922 638.73 237.208 638.73 234.38C638.73 231.552 631.187 225.422 631.187 225.422L615.63 241.923C614.687 238.623 618.93 215.523 618.458 213.166C617.987 210.809 615.415 197.137 613.058 189.122C610.702 181.108 607.018 180.208 603.844 182.522C601.288 184.385 603.372 194.78 603.844 198.08C604.315 201.38 605.196 209.376 604.674 212.761C603.943 217.512 600.544 228.252 599.129 230.608C597.714 232.965 594.414 233.908 592.529 230.608C590.643 227.309 586.871 191.95 584.043 187.236C581.215 182.521 577.83 184.193 576.415 187.492C575 190.792 576.457 214.108 576.928 219.764C577.4 225.421 577.442 243.336 576.5 246.636C575.557 249.936 571.314 259.837 571.314 259.837L567.071 247.108C567.071 247.108 568.271 239.565 568.742 233.907C569.214 228.25 564.714 224.007 562.356 224.007H562.357Z" fill="white"/>
<path d="M567.236 225.037C565.699 223.367 563.874 222.369 562.357 222.369C559.602 222.369 558.592 226.266 557.525 230.391C557.11 231.994 556.639 233.811 556.24 234.478C555.83 235.162 555.217 236.087 554.509 237.157C552.836 239.684 550.755 242.828 549.711 245.262C548.68 247.667 549.525 252.94 550.415 256.939C551.56 262.081 553.35 267.642 555.205 271.814C557.035 275.931 561.229 282.3 565.669 289.042C570.346 296.143 575.182 303.485 576.361 307.026C577.294 309.824 578.159 326.263 578.675 350.997C579.121 372.394 579.187 393.405 578.97 399.605C578.922 400.945 579.45 402.851 582.233 404.324C586.287 406.469 593.774 406.975 599.932 406.975C602.918 406.975 605.59 406.856 607.407 406.747C615.867 406.241 626.25 404.762 629.051 402.71C630.249 401.832 630.269 400.83 630.175 400.311C629.26 395.303 623.958 324.614 623.406 304.981C627.366 296.744 629.636 281.679 631.147 271.66C631.601 268.642 631.994 266.036 632.322 264.4C633.502 258.497 635.727 252.328 637.199 248.245C637.464 247.511 637.706 246.837 637.918 246.237C638.941 243.33 640.368 237.413 640.368 234.379C640.368 233.328 639.928 231.491 636.117 227.682C634.194 225.759 632.3 224.216 632.22 224.151C631.518 223.582 630.487 223.688 629.917 224.39C629.347 225.092 629.453 226.123 630.155 226.693C630.173 226.707 632.002 228.199 633.802 229.998C637.038 233.234 637.094 234.368 637.094 234.38C637.094 236.987 635.732 242.59 634.831 245.151C634.621 245.746 634.381 246.411 634.119 247.137C632.614 251.31 630.34 257.618 629.111 263.761C628.768 265.473 628.371 268.115 627.91 271.175C626.407 281.144 624.137 296.209 620.295 303.894C620.174 304.134 620.115 304.399 620.122 304.668C620.559 321.752 625.588 390.933 626.851 400.235C626.28 400.54 624.755 401.163 620.979 401.879C617.4 402.558 612.887 403.103 608.274 403.416C597.303 404.159 588.316 403.504 584.237 401.663C583.311 401.245 582.214 400.57 582.245 399.724C582.465 393.479 582.399 372.384 581.951 350.933C581.57 332.686 580.831 310.077 579.47 305.994C578.155 302.047 573.419 294.856 568.406 287.245C564.233 280.91 559.918 274.36 558.198 270.489C556.427 266.504 554.712 261.173 553.613 256.232C552.253 250.125 552.413 247.276 552.722 246.556C553.65 244.394 555.641 241.386 557.241 238.97C557.97 237.867 558.602 236.915 559.05 236.168C559.693 235.097 560.158 233.298 560.698 231.216C561.041 229.889 561.396 228.518 561.79 227.398C562.16 226.346 562.44 225.878 562.587 225.682C563.064 225.805 563.92 226.271 564.828 227.257C565.608 228.105 567.392 230.437 567.114 233.773C566.653 239.303 565.47 246.778 565.457 246.852C565.415 247.112 565.437 247.378 565.521 247.628L569.764 260.357C569.979 261.002 570.57 261.447 571.25 261.476C571.927 261.503 572.554 261.109 572.823 260.484C572.997 260.076 577.118 250.45 578.079 247.09C579.158 243.31 579.005 224.911 578.565 219.632C578.324 216.734 577.849 209.572 577.604 202.69C577.175 190.554 577.794 188.441 577.923 188.141C578.468 186.869 579.326 186.012 580.109 185.96C580.878 185.907 581.8 186.682 582.641 188.082C584.039 190.412 586.042 203.353 587.504 212.802C589.173 223.584 590.162 229.766 591.111 231.425C592.19 233.314 593.804 234.366 595.654 234.385C597.565 234.401 599.44 233.282 600.536 231.455C602.115 228.823 605.56 217.793 606.295 213.014C606.981 208.556 605.483 197.958 605.467 197.852C605.405 197.421 605.32 196.886 605.219 196.268C604.896 194.259 604.407 191.222 604.272 188.569C604.065 184.519 604.805 183.855 604.811 183.849C605.801 183.128 606.703 182.896 607.491 183.164C608.366 183.462 610.048 184.69 611.489 189.59C613.571 196.669 615.874 208.473 616.631 212.352C616.726 212.84 616.8 213.222 616.851 213.478C616.973 214.45 616.221 219.897 615.617 224.277C614.292 233.876 613.468 240.321 614.057 242.38C614.305 243.25 615.211 243.753 616.081 243.504C616.95 243.255 617.453 242.35 617.206 241.48C617.143 241.26 616.977 240.17 617.487 235.399C617.829 232.207 618.353 228.404 618.862 224.725C619.9 217.201 620.3 214.02 620.066 212.851C620.016 212.6 619.941 212.217 619.845 211.726C619 207.395 616.756 195.892 614.632 188.666C613.214 183.849 611.167 180.954 608.544 180.065C606.715 179.444 604.757 179.838 602.881 181.206C600.334 183.062 600.625 188.327 601.986 196.791C602.083 197.395 602.167 197.916 602.225 198.318C602.787 202.251 603.51 209.583 603.058 212.519C602.344 217.157 598.998 227.654 597.727 229.773C597.245 230.577 596.433 231.114 595.703 231.114C595.698 231.114 595.693 231.114 595.688 231.114C594.868 231.105 594.291 230.396 593.953 229.804C593.252 228.544 591.86 219.54 590.74 212.305C588.587 198.398 587.057 189.081 585.449 186.401C583.503 183.159 581.35 182.597 579.887 182.697C577.827 182.837 575.967 184.39 574.911 186.856C574.622 187.532 573.851 189.328 574.329 202.812C574.576 209.751 575.054 216.982 575.299 219.91C575.791 225.824 575.759 243.288 574.927 246.196C574.402 248.034 572.772 252.098 571.492 255.196L568.753 246.977C569.008 245.332 569.962 239.032 570.376 234.052C570.647 230.793 569.503 227.51 567.237 225.046L567.236 225.037ZM616.852 213.484C616.852 213.484 616.852 213.48 616.851 213.478C616.851 213.48 616.851 213.483 616.852 213.484Z" fill="black"/>
<path d="M625.942 250.327C625.905 251.231 626.609 251.992 627.513 252.028C627.535 252.028 627.557 252.028 627.58 252.028C628.453 252.028 629.179 251.338 629.214 250.456C629.216 250.413 629.399 246.002 630.249 240.613C630.569 238.588 632.652 223.633 632.011 220.679C631.159 216.747 625.645 206.472 624.458 204.919C623.09 203.13 618.622 199.197 617.36 198.36C616.607 197.86 615.591 198.065 615.09 198.819C614.59 199.572 614.795 200.589 615.549 201.089C616.586 201.778 620.73 205.436 621.855 206.909C622.794 208.139 628.079 218.001 628.81 221.374C629.19 223.127 627.836 234.887 627.014 240.103C626.135 245.68 625.949 250.139 625.941 250.327H625.942Z" fill="black"/>
<path d="M124.177 33.257C103.593 20.9954 76.9657 27.7405 64.7041 48.3246C52.4425 68.9086 59.1877 95.5357 79.7717 107.797C97.8262 118.552 120.528 114.683 134.111 99.6805L146.967 107.339C149.018 108.561 151.671 107.889 152.893 105.837L153.736 104.424C154.958 102.373 154.286 99.7198 152.234 98.4976L140.082 91.2572C151.177 70.8919 144.275 45.229 124.178 33.257H124.177Z" fill="white"/>
<path d="M145.405 58.6801C142.324 47.3774 135.083 37.8485 125.015 31.8513C119.795 28.7413 114.12 26.7462 108.149 25.9222C102.382 25.1271 96.5855 25.4506 90.9185 26.8864C85.2514 28.3222 79.9983 30.7967 75.3072 34.242C70.4484 37.8092 66.4084 42.2658 63.2985 47.4861C60.1885 52.7065 58.1934 58.3814 57.3694 64.3524C56.5742 70.119 56.8978 75.9158 58.3335 81.5828C59.7693 87.2499 62.2439 92.503 65.6892 97.1941C69.2563 102.053 73.7129 106.093 78.9333 109.203C83.5144 111.932 88.4714 113.81 93.6669 114.785C96.4008 115.297 99.161 115.554 101.928 115.554C104.243 115.554 106.561 115.374 108.869 115.015C118.605 113.501 127.622 108.811 134.405 101.762L146.127 108.746C147.495 109.56 149.098 109.794 150.641 109.403C152.185 109.013 153.484 108.044 154.298 106.676L155.14 105.262C156.822 102.439 155.893 98.7726 153.07 97.0906L142.247 90.6428C147.212 80.73 148.338 69.443 145.404 58.6788L145.405 58.6801ZM138.642 90.4751C138.221 91.248 138.486 92.2148 139.242 92.6654L151.395 99.9058C152.667 100.664 153.086 102.315 152.327 103.587L151.485 105C151.118 105.616 150.533 106.054 149.837 106.229C149.141 106.405 148.42 106.3 147.803 105.933L134.946 98.2748C134.276 97.8753 133.418 98.005 132.895 98.5827C126.52 105.625 117.809 110.312 108.365 111.782C103.665 112.513 98.9226 112.442 94.2695 111.569C89.4539 110.666 84.8584 108.924 80.6088 106.393C71.0288 100.687 64.2456 91.5912 61.5077 80.7811C58.7698 69.9723 60.4034 58.7443 66.111 49.1642C71.8174 39.5842 80.9127 32.801 91.7228 30.0618C95.1445 29.1946 98.6082 28.7662 102.048 28.7662C109.475 28.7662 116.794 30.764 123.34 34.6652C132.675 40.2261 139.39 49.0608 142.247 59.5421C145.096 69.9946 143.816 80.9802 138.643 90.4751H138.642Z" fill="black"/>
<path d="M125.018 93.5713C137.745 80.8445 137.745 60.2104 125.018 47.4837C112.291 34.7569 91.6573 34.7569 78.9305 47.4837C66.2038 60.2104 66.2038 80.8445 78.9305 93.5713C91.6573 106.298 112.291 106.298 125.018 93.5713Z" fill="#FFDD43"/>
<path d="M84.4575 99.932C89.8258 103.13 95.8243 104.769 101.915 104.769C104.735 104.769 107.575 104.417 110.38 103.706C119.242 101.461 126.7 95.8985 131.379 88.0451C136.058 80.1903 137.398 70.9849 135.153 62.1228C132.908 53.2606 127.346 45.8028 119.492 41.1235C111.637 36.4442 102.432 35.104 93.5698 37.3494C84.7077 39.5947 77.2498 45.157 72.5705 53.0104C67.8912 60.8652 66.5511 70.0706 68.7964 78.9327C71.0418 87.7949 76.604 95.2527 84.4575 99.932ZM75.3831 54.6872C79.6144 47.5844 86.3583 42.554 94.3729 40.5248C96.9103 39.8816 99.4779 39.5646 102.028 39.5646C107.536 39.5646 112.962 41.0462 117.815 43.9374C124.918 48.1687 129.949 54.9125 131.979 62.9271C134.01 70.9417 132.798 79.2668 128.566 86.3696C124.335 93.4724 117.591 98.5028 109.577 100.532C101.562 102.562 93.2371 101.351 86.1343 97.1194C79.0314 92.8881 74.001 86.1443 71.9718 78.1297C69.9413 70.1151 71.1531 61.79 75.3844 54.6872H75.3831Z" fill="black"/>
<path d="M724.247 65.0552C743.055 46.2473 743.055 15.7535 724.247 -3.05444C705.439 -21.8624 674.945 -21.8624 656.137 -3.05447C637.329 15.7535 637.329 46.2473 656.137 65.0553C674.945 83.8632 705.439 83.8632 724.247 65.0552Z" fill="white"/>
<path d="M660.884 71.2587C666.112 75.0643 671.931 77.7838 678.18 79.3388C682.108 80.3174 686.101 80.806 690.119 80.806C692.718 80.806 695.329 80.6003 697.937 80.1903C704.578 79.1449 710.814 76.8302 716.476 73.3089C721.944 69.9094 726.646 65.534 730.453 60.3058C734.258 55.0776 736.978 49.2586 738.533 43.0099C740.143 36.5398 740.43 29.8929 739.384 23.2525C738.339 16.6121 736.024 10.3752 732.503 4.71335C729.103 -0.754593 724.728 -5.45618 719.5 -9.26304C714.272 -13.0686 708.453 -15.7882 702.204 -17.3431C695.734 -18.9531 689.087 -19.24 682.446 -18.1946C675.806 -17.1492 669.569 -14.8345 663.907 -11.3132C658.439 -7.91374 653.738 -3.53834 649.931 1.68987C646.125 6.91808 643.406 12.7371 641.851 18.9858C640.241 25.4559 639.954 32.1028 640.999 38.7432C642.045 45.3836 644.359 51.6205 647.881 57.2823C651.28 62.7503 655.656 67.4519 660.884 71.2587ZM652.58 3.61819C659.893 -6.4282 670.681 -13.0254 682.957 -14.9576C695.233 -16.8899 707.526 -13.9266 717.573 -6.61291C727.619 0.700817 734.216 11.4887 736.149 23.7647C738.081 36.0407 735.118 48.3337 727.804 58.3801C720.49 68.4265 709.702 75.0237 697.426 76.9559C685.152 78.8882 672.857 75.9249 662.811 68.6112C652.764 61.2975 646.167 50.5096 644.235 38.2336C642.303 25.9576 645.266 13.6646 652.58 3.61819Z" fill="black"/>
<path d="M719.978 60.7868C736.429 44.3362 736.429 17.6646 719.978 1.21401C703.528 -15.2366 676.856 -15.2366 660.405 1.21397C643.955 17.6646 643.955 44.3362 660.405 60.7868C676.856 77.2374 703.528 77.2374 719.978 60.7868Z" fill="black"/>
<path d="M692.884 29.6085C681.35 22.3236 660.708 24.2965 653.574 23.0821C646.441 21.8677 638.85 17.6443 638.85 17.6443C638.85 17.6443 632.022 38.4117 664.654 41.447C694.025 44.1796 692.884 29.6085 692.884 29.6085Z" fill="#FFDD43"/>
<path d="M664.502 43.078C667.017 43.3125 669.382 43.4291 671.596 43.4291C680.59 43.4291 687.096 41.5021 690.978 37.6742C694.814 33.8936 694.53 29.6597 694.517 29.4815C694.476 28.9667 694.196 28.5003 693.758 28.2252C685.011 22.7009 671.761 22.287 662.084 21.9831C658.655 21.8756 655.695 21.7826 653.848 21.4682C647.084 20.3167 639.718 16.2544 639.645 16.2138C639.218 15.9767 638.707 15.9413 638.252 16.1195C637.798 16.2977 637.445 16.6697 637.293 17.1334C637.192 17.4413 634.868 24.7472 639.431 31.7072C643.618 38.0947 652.053 41.9199 664.502 43.078ZM640.025 20.094C642.81 21.4617 648.123 23.8157 653.3 24.6974C655.369 25.0498 658.434 25.1454 661.983 25.2567C670.977 25.5384 683.185 25.9196 691.208 30.5112C691.071 31.5736 690.547 33.5399 688.606 35.4145C683.441 40.403 672.813 40.5615 664.806 39.8174C658.565 39.2371 653.389 37.948 649.424 35.9843C646.229 34.4032 643.797 32.374 642.198 29.9518C639.761 26.2628 639.744 22.3564 640.025 20.0927V20.094Z" fill="black"/>
<path d="M711.355 0.535713C714.693 -5.8846 721.036 -11.8189 721.036 -11.8189C721.036 -11.8189 703.353 -24.6726 690.481 5.46655C678.894 32.594 693.116 35.9647 693.116 35.9647C703.581 27.2112 708.016 6.95602 711.355 0.535713Z" fill="#FFDD43"/>
<path d="M692.739 37.559C692.865 37.5891 692.99 37.6035 693.116 37.6035C693.496 37.6035 693.869 37.4712 694.167 37.2223C702.102 30.5858 706.55 18.095 709.799 8.97608C710.951 5.74562 711.944 2.95532 712.808 1.29293C715.973 -4.79464 722.095 -10.5639 722.155 -10.6215C722.511 -10.9556 722.701 -11.4311 722.671 -11.9184C722.641 -12.4057 722.395 -12.8551 721.999 -13.142C721.737 -13.3319 715.491 -17.7794 707.47 -15.5655C700.108 -13.5337 693.885 -6.67318 688.975 4.82469C683.954 16.5806 682.96 25.6183 686.021 31.6849C688.447 36.4939 692.565 37.5184 692.739 37.559ZM691.987 6.1098C694.449 0.345797 697.26 -4.1868 700.341 -7.36224C702.823 -9.92067 705.5 -11.6145 708.294 -12.3966C709.575 -12.7555 710.806 -12.8983 711.961 -12.8983C714.642 -12.8983 716.898 -12.1202 718.344 -11.4494C716.189 -9.21589 712.324 -4.87717 709.901 -0.218813C708.933 1.6427 707.905 4.53125 706.713 7.87568C703.693 16.3527 699.596 27.8584 692.77 34.0927C691.801 33.6381 690.089 32.5364 688.898 30.1155C685.729 23.6717 688.829 13.5047 691.987 6.1098Z" fill="black"/>
<path d="M727.229 68.4357C727.229 68.4357 742.049 56.3457 717.43 37.4136C695.271 20.3731 686.824 35.3176 686.824 35.3176C692.385 46.9883 709.926 55.8426 715.03 60.4224C720.134 65.0022 727.229 68.4344 727.229 68.4344V68.4357Z" fill="#FFDD43"/>
<path d="M707.605 57.0727C710.296 58.8897 712.618 60.4591 713.936 61.642C719.151 66.3226 726.217 69.7653 726.516 69.9094C726.743 70.0195 726.986 70.0732 727.229 70.0732C727.599 70.0732 727.966 69.9474 728.264 69.7051C728.473 69.5348 733.39 65.4384 733.286 58.2465C733.183 51.0638 728.184 43.619 718.428 36.1167C709.618 29.3413 701.762 26.5943 695.079 27.9514C688.408 29.306 685.517 34.301 685.398 34.5132C685.136 34.9783 685.115 35.5416 685.345 36.0236C689.573 44.8937 699.995 51.9336 707.605 57.074V57.0727ZM695.799 31.1465C698.292 30.654 701.082 30.8819 704.093 31.8238C707.876 33.008 712.027 35.3241 716.432 38.7105C721.336 42.4819 724.969 46.2364 727.231 49.869C729.025 52.751 729.96 55.5649 730.011 58.2334C730.09 62.3651 728.061 65.1908 726.927 66.4405C724.824 65.3336 719.873 62.5669 716.124 59.2028C714.64 57.8705 712.229 56.2422 709.439 54.3571C702.392 49.5979 692.832 43.1396 688.723 35.4407C689.633 34.2617 691.88 31.9181 695.801 31.1439L695.799 31.1465Z" fill="black"/>
<path d="M715.347 -17.7453C709.731 -24.4237 698.131 -28.5593 689.849 -23.6652C679.832 -17.7453 679.529 -5.90682 679.832 3.50291C680.135 12.9126 682.614 28.9955 692.428 26.2694C703.357 23.2341 695.27 -4.50512 696.83 -11.5228C698.955 -21.0845 707.302 -19.7181 715.347 -17.7453Z" fill="#FFDD43"/>
<path d="M701.633 -16.4209C704.829 -18.4069 710.186 -17.3248 714.957 -16.155C715.644 -15.986 716.364 -16.2794 716.737 -16.8807C717.11 -17.482 717.055 -18.2562 716.599 -18.7986C713.542 -22.4351 708.958 -25.287 704.026 -26.6245C698.55 -28.1087 693.22 -27.5572 689.015 -25.0735C684.135 -22.1901 680.984 -17.8501 679.386 -11.8071C678.064 -6.81074 678.032 -1.46987 678.194 3.55791C678.278 6.16743 678.6 11.2699 679.812 16.1182C681.09 21.235 683.032 24.7786 685.581 26.6532C687.002 27.6973 688.577 28.2213 690.285 28.2213C691.115 28.2213 691.975 28.0981 692.866 27.8505C695.093 27.2322 696.814 25.7663 697.982 23.4935C698.923 21.6608 699.503 19.3264 699.754 16.3566C700.193 11.1585 699.53 4.98843 698.944 -0.454624C698.458 -4.9715 698 -9.23686 698.428 -11.1639C698.994 -13.7118 700.042 -15.4305 701.633 -16.4183V-16.4209ZM695.232 -11.8778C694.687 -9.4255 695.128 -5.31341 695.689 -0.108784C696.737 9.63237 698.172 22.9747 691.991 24.6908C690.262 25.1716 688.8 24.9489 687.523 24.0096C683.451 21.0176 681.726 11.4271 681.468 3.44918C681.157 -6.17015 681.588 -16.8833 690.681 -22.2556C692.827 -23.5237 695.363 -24.1682 698.088 -24.1682C699.727 -24.1682 701.435 -23.9351 703.168 -23.4661C705.428 -22.853 707.644 -21.8482 709.614 -20.5749C706.038 -21.0531 702.64 -20.9063 699.903 -19.206C697.56 -17.7506 695.986 -15.2851 695.231 -11.8804L695.232 -11.8778Z" fill="black"/>
<path d="M706.916 34.7949C713.319 33.7273 722.059 23.7176 724.368 19.9906C731.062 9.1818 730.7 -6.27358 729.327 -6.82509C726.779 -7.84951 722.743 -1.90735 721.457 0.778147C719.477 4.91251 691.709 20.922 694.376 28.1244C695.884 32.1972 700.513 35.8613 706.916 34.7949Z" fill="#FFDD43"/>
<path d="M704.669 36.6236C705.476 36.6236 706.316 36.5555 707.184 36.4101C711.104 35.7564 715.394 32.3347 718.302 29.5785C721.714 26.3467 724.559 22.7887 725.759 20.8525C729.207 15.285 730.667 8.94595 731.286 4.60985C731.945 -0.0144482 731.936 -4.67805 731.261 -6.72951C731.16 -7.03736 730.852 -7.97663 729.936 -8.34474C728.1 -9.08227 725.997 -8.12466 723.688 -5.49549C722.104 -3.69424 720.684 -1.40174 719.978 0.0720119C719.46 1.15407 714.978 4.53518 711.375 7.25081C707.023 10.5324 702.091 14.2528 698.376 17.8199C693.562 22.4416 691.802 25.8974 692.84 28.6942C694.34 32.7421 698.579 36.6236 704.668 36.6236H704.669ZM700.646 20.1818C704.221 16.7496 709.071 13.0921 713.349 9.86557C719.081 5.54257 722.109 3.20684 722.935 1.4855C723.508 0.288162 724.676 -1.61003 725.991 -3.15059C727.06 -4.40295 727.833 -4.95184 728.282 -5.17323C728.518 -3.82917 728.683 -0.665519 728.117 3.63521C727.341 9.52759 725.515 15.0296 722.978 19.1286C720.638 22.9066 712.261 32.2443 706.649 33.1796C701.05 34.1124 697.159 30.9186 695.913 27.5558C695.681 26.9283 695.676 24.9528 700.646 20.1805V20.1818Z" fill="black"/>
<path d="M677.104 34.026C683.831 35.1473 688.694 31.2972 690.279 27.0188C693.082 19.4509 663.907 2.63051 661.827 -1.71345C660.475 -4.5365 656.235 -10.7773 653.558 -9.70183C652.116 -9.12281 651.736 7.11725 658.768 18.4723C661.193 22.3892 670.376 32.9046 677.104 34.026Z" fill="#FFDD43"/>
<path d="M665.198 28.4859C668.245 31.3732 672.738 34.9586 676.836 35.6411C677.745 35.7931 678.621 35.8638 679.465 35.8638C685.822 35.8638 690.25 31.812 691.815 27.5873C692.891 24.683 691.049 21.0792 686.019 16.2505C682.119 12.5065 676.939 8.60013 672.368 5.15352C668.577 2.29379 663.859 -1.26548 663.306 -2.41959C662.567 -3.96277 661.08 -6.364 659.422 -8.2504C657.021 -10.9818 654.842 -11.9826 652.95 -11.2215C652.024 -10.8494 651.71 -9.89052 651.606 -9.57612C650.902 -7.43034 650.892 -2.54666 651.584 2.30034C652.233 6.84866 653.764 13.4969 657.379 19.3343C658.637 21.3648 661.621 25.0956 665.2 28.4859H665.198ZM654.59 -8.08403C655.04 -7.89015 655.835 -7.36877 656.962 -6.0889C658.407 -4.44616 659.731 -2.303 660.352 -1.0061C661.21 0.784667 664.385 3.23437 670.397 7.76697C674.894 11.1586 679.991 15.0034 683.751 18.6125C689.008 23.6599 688.995 25.7742 688.745 26.4489C687.583 29.5863 684.251 32.5849 679.427 32.5836C678.77 32.5836 678.085 32.5286 677.374 32.4094C671.454 31.4229 662.626 21.5875 660.162 17.609C654.137 7.87963 653.987 -4.95575 654.59 -8.08534V-8.08403Z" fill="black"/>
<path d="M687.711 87.3154C689.235 88.032 702.395 76.3612 706.219 62.4123C707.537 57.6007 709.11 42.5645 705.04 36.4009C700.97 30.2374 694.331 29.2195 689.769 31.1164C681.7 34.4726 689.866 70.0142 687.954 74.8665C686.71 78.0196 684.886 85.9844 687.712 87.3154H687.711Z" fill="#FFDD43"/>
<path d="M684.676 81.6104C684.286 85.4657 685.073 87.8839 687.013 88.7983C687.304 88.9346 687.597 88.9857 687.872 88.9857C688.47 88.9857 688.981 88.7499 689.194 88.6516C691.399 87.6364 695.259 84.0587 698.583 79.9519C701.705 76.0939 705.838 69.9959 707.796 62.8472C708.477 60.3608 709.235 55.2584 709.286 49.9319C709.329 45.4046 708.864 39.2266 706.404 35.501C701.749 28.4532 694.191 27.506 689.137 29.6073C686.095 30.8727 684.622 34.9495 684.5 42.44C684.406 48.2853 685.125 55.2702 685.761 61.4324C686.316 66.8296 686.946 72.9486 686.426 74.2691C685.75 75.9839 684.946 78.9196 684.673 81.613L684.676 81.6104ZM687.778 42.4911C687.903 34.8067 689.472 33.0133 690.397 32.6295C694.247 31.0286 700.044 31.8081 703.672 37.3035C707.276 42.761 705.983 57.0727 704.639 61.98C703.175 67.3261 699.966 73.1635 695.607 78.4179C692.258 82.4527 689.374 84.7845 688.162 85.5024C687.943 85.019 687.73 83.9605 687.934 81.9405C688.174 79.5707 688.901 76.9245 689.475 75.4678C690.251 73.4962 689.853 69.1837 689.02 61.0958C688.395 55.0239 687.686 48.1425 687.777 42.4911H687.778Z" fill="black"/>
<path d="M655.053 56.647C663.386 56.6587 683.777 53.7414 693.491 43.4199C702.149 34.2211 699.065 26.6296 691.366 22.6263C679.466 35.8297 666.29 41.7653 658.001 43.2286C646.682 45.2277 635.209 41.4457 636.12 43.7225C637.03 45.9993 639.155 56.6234 655.052 56.6456L655.053 56.647Z" fill="#FFDD43"/>
<path d="M655.05 58.2845C655.067 58.2845 655.086 58.2845 655.103 58.2845C659.411 58.2845 666.669 57.5509 674.187 55.4876C685.547 52.3698 691.603 47.8149 694.683 44.5426C700.163 38.7196 700.706 33.9224 700.198 30.9225C699.533 26.9977 696.664 23.5367 692.122 21.1735C691.46 20.8289 690.65 20.9757 690.151 21.5298C684.831 27.4327 678.899 32.2692 672.519 35.907C667.449 38.7982 662.191 40.8261 657.716 41.616C651.766 42.6666 645.614 42.0444 641.543 41.6317C637.579 41.2309 635.77 41.0475 634.831 42.2933C634.397 42.8697 634.313 43.6112 634.6 44.3303C634.661 44.4836 634.743 44.7233 634.837 45.0011C635.951 48.2813 639.337 58.2609 655.05 58.2832V58.2845ZM641.212 44.8923C645.462 45.322 651.888 45.9731 658.285 44.8426C663.121 43.9884 668.752 41.8256 674.14 38.7537C680.47 35.1446 686.371 30.4168 691.696 24.6908C695.46 26.9702 696.649 29.5981 696.968 31.4714C697.519 34.7215 695.904 38.4655 692.296 42.2985C688.293 46.5521 681.73 50.021 673.318 52.3292C666.105 54.3086 659.008 55.0095 655.098 55.0095H655.052C649.275 55.0016 644.822 53.5187 641.819 50.6013C639.719 48.5616 638.726 46.1958 638.167 44.6225C639.019 44.6696 640.156 44.7849 641.209 44.891L641.212 44.8923Z" fill="black"/>
<path d="M694.336 32.7866C680.547 21.4931 662.365 61.7572 667.857 68.7186C671.411 73.2237 711.485 46.8324 694.336 32.7866Z" fill="#FFDD43"/>
<path d="M669.291 70.8644C669.809 70.8644 670.383 70.7949 671.009 70.6574C675.046 69.7692 681.545 66.0357 687.179 61.3682C691.164 58.067 698.107 51.4554 699.829 44.2596C701.018 39.2855 699.479 34.88 695.373 31.5185C690.627 27.6318 684.879 28.5671 679.188 34.1529C674.772 38.489 670.491 45.563 667.735 53.0785C666.37 56.8002 663.525 65.872 666.571 69.7312C667.165 70.4845 668.076 70.8631 669.289 70.8631L669.291 70.8644ZM670.812 54.2077C673.409 47.1259 677.399 40.5038 681.485 36.4913C683.648 34.3678 685.734 33.0617 687.688 32.6111C689.71 32.1447 691.546 32.6163 693.298 34.0521C695.584 35.9241 696.773 38.0332 696.93 40.4986C697.073 42.7452 696.343 45.2775 694.76 48.0271C692.009 52.806 686.781 58.0303 680.415 62.3612C673.813 66.8532 669.924 67.74 669.056 67.5815C668.069 66.0658 668.2 61.325 670.811 54.2064L670.812 54.2077Z" fill="black"/>
<path d="M736.845 26.8248C733.988 18.4303 690.31 11.7978 692.292 29.5116C694.758 51.5419 738.694 32.2561 736.845 26.8248Z" fill="#FFDD43"/>
<path d="M698.937 40.3611C701.182 41.1549 703.668 41.4628 706.176 41.4628C711.458 41.4628 716.825 40.0978 720.173 39.0471C727.154 36.8555 733.821 33.4299 736.76 30.5256C738.286 29.0178 738.837 27.5951 738.396 26.2995C736.813 21.6451 727.652 19.0998 723.786 18.2221C715.98 16.4496 707.715 16.1955 701.675 17.5448C693.892 19.2832 689.982 23.5983 690.664 29.695C691.254 34.9678 694.115 38.6554 698.935 40.3611H698.937ZM695.761 23.838C697.201 22.4442 699.432 21.4014 702.39 20.7412C707.978 19.4928 715.706 19.7456 723.062 21.4158C730.455 23.0953 734.506 25.5633 735.241 27.2139C734.901 28.0287 732.043 30.8099 724.683 33.9093C717.587 36.8974 710.36 38.4458 704.853 38.1563C701.685 37.99 699.162 37.2249 697.356 35.8835C695.372 34.4111 694.248 32.2679 693.919 29.3309C693.668 27.0777 694.269 25.2817 695.76 23.838H695.761Z" fill="black"/>
<path d="M692.283 36.4193C705.459 22.27 681.309 -5.30686 672.599 -3.64054C666.964 -2.56241 671.006 38.907 692.283 36.4193Z" fill="#FFDD43"/>
<path d="M690.445 38.1655C691.104 38.1655 691.781 38.1262 692.473 38.045C692.86 38.0005 693.216 37.8184 693.482 37.5341C696.564 34.2237 697.999 30.0854 697.745 25.2345C697.535 21.2259 696.116 16.7418 693.643 12.2668C691.014 7.5102 687.227 2.85184 683.253 -0.514858C677.53 -5.36448 673.929 -5.5636 672.291 -5.25051C670.423 -4.89288 669.261 -2.87155 668.838 0.759772C668.503 3.64046 668.646 7.35955 669.242 11.2345C671.197 23.9455 677.901 38.1642 690.445 38.1642V38.1655ZM671.991 6.13863C671.868 3.86709 671.944 1.84052 672.213 0.276382C672.469 -1.22226 672.839 -1.87333 673.001 -2.04887C674.412 -2.25323 677.256 -1.30217 681.135 1.98462C684.817 5.10504 688.331 9.43066 690.775 13.8519C693.01 17.8946 694.289 21.8901 694.472 25.4061C694.666 29.1147 693.661 32.2889 691.485 34.8499C687.996 35.108 684.824 34.0233 682.051 31.6208C679.431 29.3505 677.202 25.9878 675.427 21.6268C673.524 16.9501 672.272 11.304 671.99 6.13732L671.991 6.13863Z" fill="black"/>
<path d="M98.5129 299.61L64.278 452.769L182.472 479.188L216.707 326.03L98.5129 299.61Z" fill="white"/>
<path d="M63.9207 454.342L182.116 480.753C182.236 480.78 182.355 480.792 182.474 480.792C183.224 480.792 183.901 480.273 184.071 479.511L218.295 326.35C218.389 325.925 218.312 325.483 218.079 325.116C217.846 324.749 217.478 324.49 217.053 324.395L98.8584 297.984C97.9755 297.787 97.1004 298.343 96.9026 299.225L62.6789 452.386C62.5845 452.811 62.6618 453.253 62.895 453.62C63.1282 453.987 63.4963 454.246 63.9207 454.341V454.342ZM99.7427 301.538L214.742 327.235L181.233 477.2L66.2329 451.503L99.7427 301.538Z" fill="black"/>
<path d="M98.5096 299.603L96.6727 307.821L214.867 334.24L216.704 326.022L98.5096 299.603Z" fill="#FFDD43"/>
<path d="M96.3092 309.4L214.504 335.811C214.624 335.838 214.744 335.85 214.863 335.85C215.612 335.85 216.289 335.331 216.46 334.569L218.296 326.35C218.391 325.925 218.313 325.483 218.08 325.116C217.847 324.749 217.479 324.49 217.054 324.395L98.8597 297.984C97.9768 297.787 97.1017 298.343 96.9039 299.225L95.0673 307.444C94.973 307.868 95.0503 308.311 95.2835 308.678C95.5166 309.045 95.8847 309.304 96.3092 309.398V309.4ZM99.744 301.538L214.744 327.235L213.621 332.258L98.6213 306.561L99.744 301.538Z" fill="black"/>
<path d="M99.5363 330.115L91.5871 365.678L194.839 388.758L202.788 353.195L99.5363 330.115Z" fill="white"/>
<path d="M91.2251 367.253L194.478 390.325C194.596 390.351 194.716 390.364 194.836 390.364C195.143 390.364 195.449 390.276 195.713 390.109C196.08 389.876 196.34 389.507 196.434 389.083L204.38 353.519C204.578 352.636 204.021 351.761 203.14 351.565L99.8868 328.493C99.0039 328.295 98.1288 328.852 97.931 329.733L89.9846 365.297C89.8902 365.722 89.9675 366.165 90.2007 366.531C90.4339 366.898 90.802 367.158 91.2264 367.252L91.2251 367.253ZM100.77 332.047L200.826 354.405L193.594 386.772L93.5373 364.414L100.77 332.047Z" fill="black"/>
<path d="M85.8091 391.535L77.8599 427.098L109.238 434.112L117.187 398.549L85.8091 391.535Z" fill="#FFDD43"/>
<path d="M108.883 435.678C109.003 435.705 109.122 435.718 109.242 435.718C109.991 435.718 110.668 435.199 110.838 434.437L118.785 398.874C118.983 397.991 118.426 397.116 117.544 396.919L86.1646 389.907C85.7402 389.813 85.2961 389.89 84.9306 390.123C84.5638 390.356 84.3044 390.724 84.2101 391.149L76.2636 426.713C76.0658 427.596 76.6226 428.471 77.5042 428.667L108.884 435.678H108.883ZM87.0475 393.461L115.231 399.758L107.998 432.126L79.815 425.829L87.0475 393.461Z" fill="black"/>
<path d="M101.471 321.965L100.627 325.298L203.283 348.236L204.125 344.903L101.471 321.965Z" fill="black"/>
<path d="M103.012 314.844L102.169 318.175L204.823 341.113L205.667 337.782L103.012 314.844Z" fill="black"/>
<path d="M167.703 397.618L87.9174 379.668L87.0737 383.001L166.859 400.95L167.703 397.618Z" fill="black"/>
<path d="M89.4593 372.546L88.6156 375.878L191.271 398.816L192.113 395.485L89.4593 372.546Z" fill="black"/>
<path d="M46.7416 144.532L-25.5262 310.261L93.5429 362.182L165.811 196.453L46.7416 144.532Z" fill="white"/>
<path d="M92.8901 363.681C93.0984 363.771 93.3211 363.817 93.5451 363.817C93.7481 363.817 93.9512 363.779 94.1437 363.703C94.5485 363.545 94.8721 363.232 95.0463 362.833L167.312 197.103C167.674 196.273 167.295 195.309 166.466 194.948L47.3964 143.028C46.9981 142.855 46.5475 142.846 46.1427 143.005C45.7379 143.163 45.4144 143.476 45.2401 143.875L-27.026 309.605C-27.3876 310.435 -27.009 311.399 -26.1798 311.76L92.8901 363.68V363.681ZM47.5876 146.686L163.655 197.296L92.6975 360.025L-23.3698 309.414L47.5876 146.686Z" fill="black"/>
<path d="M141.769 208.621C141.982 208.714 142.204 208.758 142.423 208.758C143.054 208.758 143.655 208.39 143.924 207.774C144.285 206.945 143.907 205.979 143.078 205.619L64.0478 171.158C63.2186 170.797 62.2544 171.175 61.8929 172.004C61.5313 172.834 61.9099 173.798 62.7391 174.159L141.769 208.62V208.621Z" fill="black"/>
<path d="M135.85 221.537C136.064 221.63 136.285 221.674 136.504 221.674C137.135 221.674 137.737 221.306 138.005 220.69C138.367 219.861 137.988 218.896 137.159 218.536L58.1293 184.075C57.3 183.713 56.3359 184.092 55.9743 184.921C55.6128 185.75 55.9913 186.714 56.8206 187.076L135.85 221.537Z" fill="black"/>
<path d="M129.93 234.452C130.144 234.545 130.365 234.59 130.584 234.59C131.216 234.59 131.817 234.221 132.085 233.606C132.447 232.777 132.068 231.811 131.239 231.451L52.2094 196.99C51.3802 196.628 50.416 197.007 50.0545 197.836C49.6929 198.665 50.0715 199.631 50.9007 199.991L129.93 234.452Z" fill="black"/>
<path d="M124.01 247.369C124.224 247.462 124.445 247.505 124.664 247.505C125.296 247.505 125.897 247.137 126.165 246.521C126.527 245.692 126.148 244.726 125.319 244.366L46.2895 209.905C45.4603 209.544 44.4961 209.922 44.1345 210.751C43.773 211.581 44.1516 212.546 44.9808 212.906L124.01 247.367V247.369Z" fill="black"/>
<path d="M118.091 260.284C118.304 260.377 118.526 260.42 118.744 260.42C119.376 260.42 119.977 260.052 120.246 259.436C120.607 258.607 120.229 257.643 119.399 257.281L40.3697 222.821C39.5404 222.459 38.5763 222.838 38.2147 223.667C37.8531 224.496 38.2317 225.462 39.061 225.822L118.091 260.283V260.284Z" fill="black"/>
<path d="M112.171 273.199C112.384 273.292 112.606 273.335 112.824 273.335C113.456 273.335 114.057 272.967 114.326 272.352C114.687 271.522 114.309 270.557 113.479 270.197L34.4497 235.736C33.6205 235.374 32.6563 235.753 32.2948 236.582C31.9332 237.411 32.3118 238.377 33.141 238.737L112.171 273.198V273.199Z" fill="black"/>
<path d="M106.252 286.114C106.466 286.207 106.687 286.251 106.906 286.251C107.537 286.251 108.139 285.883 108.407 285.267C108.769 284.438 108.39 283.472 107.561 283.112L28.5312 248.651C27.7019 248.289 26.7378 248.668 26.3762 249.497C26.0146 250.327 26.3932 251.291 27.2225 251.652L106.252 286.113V286.114Z" fill="black"/>
<path d="M100.332 299.031C100.546 299.124 100.767 299.167 100.986 299.167C101.617 299.167 102.219 298.799 102.487 298.183C102.849 297.354 102.47 296.389 101.641 296.029L22.6112 261.568C21.782 261.206 20.8178 261.585 20.4563 262.414C20.0947 263.243 20.4733 264.209 21.3025 264.569L100.332 299.03V299.031Z" fill="black"/>
<path d="M94.4124 311.946C94.6259 312.039 94.8473 312.084 95.0661 312.084C95.6975 312.084 96.2988 311.716 96.5673 311.1C96.9289 310.271 96.5503 309.305 95.7211 308.945L16.6914 274.484C15.8622 274.123 14.898 274.501 14.5364 275.331C14.1749 276.16 14.5535 277.125 15.3827 277.486L94.4124 311.946Z" fill="black"/>
<path d="M88.4924 324.862C88.706 324.955 88.9274 324.999 89.1461 324.999C89.7775 324.999 90.3788 324.631 90.6474 324.015C91.009 323.186 90.6304 322.221 89.8011 321.86L10.7715 287.4C9.94222 287.038 8.97806 287.417 8.6165 288.246C8.25494 289.075 8.63353 290.041 9.46276 290.401L88.4924 324.862Z" fill="black"/>
<path d="M82.5726 337.777C82.7861 337.87 83.0075 337.913 83.2262 337.913C83.8577 337.913 84.459 337.545 84.7275 336.929C85.0891 336.1 84.7105 335.135 83.8812 334.774L4.85287 300.315C4.02364 299.953 3.05948 300.332 2.69792 301.161C2.33636 301.99 2.71495 302.956 3.54418 303.316L82.5739 337.777H82.5726Z" fill="black"/>
<path d="M143.515 200.767L138.751 211.693L176.106 227.982L180.871 217.056L143.515 200.767Z" fill="#FFDD43"/>
<path d="M175.452 229.481C175.66 229.571 175.883 229.617 176.107 229.617C176.31 229.617 176.513 229.579 176.705 229.503C177.11 229.344 177.434 229.031 177.608 228.633L182.372 217.708C182.734 216.878 182.355 215.914 181.526 215.553L144.17 199.264C143.772 199.09 143.321 199.082 142.916 199.24C142.512 199.399 142.188 199.712 142.014 200.11L137.249 211.036C136.888 211.865 137.266 212.829 138.096 213.191L175.452 229.479V229.481ZM144.361 202.92L178.715 217.9L175.259 225.824L140.906 210.844L144.361 202.92Z" fill="black"/>
<path d="M136.639 216.173L131.874 227.099L169.23 243.388L173.995 232.462L136.639 216.173Z" fill="white"/>
<path d="M168.575 244.886C168.784 244.977 169.006 245.022 169.23 245.022C169.433 245.022 169.636 244.984 169.829 244.908C170.234 244.75 170.557 244.437 170.732 244.039L175.496 233.113C175.858 232.284 175.479 231.32 174.65 230.958L137.294 214.67C136.896 214.495 136.445 214.488 136.04 214.646C135.635 214.805 135.312 215.118 135.138 215.516L130.373 226.441C130.012 227.271 130.39 228.235 131.219 228.596L168.575 244.885V244.886ZM137.485 218.326L171.839 233.306L168.383 241.23L134.029 226.25L137.485 218.326Z" fill="black"/>
<path d="M51.9087 160.777L50.3504 164.35L53.924 165.908L55.4823 162.335L51.9087 160.777Z" fill="black"/>
<path d="M37.0417 154.998L35.9929 157.403L51.5565 164.19L52.6053 161.785L37.0417 154.998Z" fill="black"/>
<path d="M48.2246 169.374L46.6663 172.947L50.2398 174.506L51.7981 170.932L48.2246 169.374Z" fill="black"/>
<path d="M33.3576 163.595L32.3088 166L47.8724 172.787L48.9212 170.382L33.3576 163.595Z" fill="black"/>
<path d="M44.5388 177.972L42.9805 181.546L46.5541 183.104L48.1124 179.531L44.5388 177.972Z" fill="black"/>
<path d="M29.6718 172.194L28.623 174.599L44.1866 181.386L45.2354 178.98L29.6718 172.194Z" fill="black"/>
<path d="M40.8546 186.57L39.2963 190.143L42.8699 191.702L44.4282 188.128L40.8546 186.57Z" fill="black"/>
<path d="M25.9875 180.792L24.9387 183.197L40.5023 189.983L41.5511 187.578L25.9875 180.792Z" fill="black"/>
<path d="M37.1695 195.167L35.6112 198.741L39.1848 200.299L40.7431 196.725L37.1695 195.167Z" fill="black"/>
<path d="M22.3032 189.392L21.2543 191.797L36.8179 198.583L37.8667 196.178L22.3032 189.392Z" fill="black"/>
<path d="M33.4839 203.764L31.9256 207.338L35.4992 208.896L37.0575 205.323L33.4839 203.764Z" fill="black"/>
<path d="M18.6181 197.988L17.5693 200.393L33.1329 207.179L34.1817 204.774L18.6181 197.988Z" fill="black"/>
<path d="M29.8008 212.363L28.2425 215.937L31.816 217.495L33.3743 213.922L29.8008 212.363Z" fill="black"/>
<path d="M14.9337 206.585L13.8849 208.99L29.4485 215.777L30.4973 213.371L14.9337 206.585Z" fill="black"/>
<path d="M26.1151 220.961L24.5568 224.534L28.1304 226.093L29.6887 222.519L26.1151 220.961Z" fill="black"/>
<path d="M11.2481 215.184L10.1993 217.589L25.7629 224.375L26.8117 221.97L11.2481 215.184Z" fill="black"/>
<path d="M22.4301 229.558L20.8718 233.132L24.4454 234.69L26.0036 231.116L22.4301 229.558Z" fill="black"/>
<path d="M7.56387 223.781L6.51506 226.186L22.0786 232.973L23.1275 230.567L7.56387 223.781Z" fill="black"/>
<path d="M18.7456 238.157L17.1873 241.73L20.7609 243.289L22.3192 239.715L18.7456 238.157Z" fill="black"/>
<path d="M3.87806 232.379L2.82925 234.784L18.3928 241.571L19.4416 239.166L3.87806 232.379Z" fill="black"/>
<path d="M15.0601 246.754L13.5018 250.328L17.0753 251.886L18.6336 248.312L15.0601 246.754Z" fill="black"/>
<path d="M0.194214 240.977L-0.854595 243.382L14.709 250.169L15.7578 247.764L0.194214 240.977Z" fill="black"/>
<path d="M11.3757 255.353L9.81741 258.926L13.391 260.485L14.9493 256.911L11.3757 255.353Z" fill="black"/>
<path d="M-3.49014 249.575L-4.53894 251.98L11.0246 258.766L12.0734 256.361L-3.49014 249.575Z" fill="black"/>
<path d="M7.69008 263.95L6.13179 267.523L9.70539 269.082L11.2637 265.508L7.69008 263.95Z" fill="black"/>
<path d="M-7.17566 258.173L-8.22447 260.578L7.33909 267.365L8.3879 264.96L-7.17566 258.173Z" fill="black"/>
<path d="M4.00614 272.548L2.44785 276.121L6.02144 277.68L7.57973 274.106L4.00614 272.548Z" fill="black"/>
<path d="M-10.8613 266.772L-11.9101 269.177L3.65346 275.964L4.70226 273.558L-10.8613 266.772Z" fill="black"/>
<path d="M0.321932 281.145L-1.23636 284.719L2.33723 286.277L3.89552 282.703L0.321932 281.145Z" fill="black"/>
<path d="M-14.5451 275.366L-15.5939 277.771L-0.0303205 284.558L1.01849 282.153L-14.5451 275.366Z" fill="black"/>
<path d="M-3.36379 289.744L-4.92208 293.317L-1.3485 294.875L0.209794 291.302L-3.36379 289.744Z" fill="black"/>
<path d="M131.353 244.276L123.703 246.082L152.651 368.734L160.301 366.929L131.353 244.276Z" fill="#FFDD43"/>
<path d="M151.798 370.121C152.059 370.282 152.357 370.366 152.659 370.366C152.785 370.366 152.91 370.351 153.035 370.323L160.684 368.517C161.564 368.309 162.109 367.427 161.901 366.547L132.95 243.896C132.742 243.015 131.86 242.471 130.98 242.679L123.329 244.484C122.906 244.584 122.541 244.847 122.313 245.216C122.085 245.586 122.013 246.031 122.112 246.453L151.063 369.104C151.163 369.527 151.426 369.893 151.795 370.121H151.798ZM130.14 246.241L158.339 365.705L153.877 366.758L125.678 247.294L130.14 246.241Z" fill="black"/>
<path d="M131.192 243.597L123.542 245.402L133.888 289.239L141.538 287.434L131.192 243.597Z" fill="#FFDD43"/>
<path d="M133.034 290.627C133.294 290.789 133.593 290.872 133.894 290.872C134.02 290.872 134.146 290.858 134.27 290.829L141.921 289.024C142.801 288.816 143.346 287.934 143.138 287.054L132.79 243.217C132.69 242.794 132.427 242.429 132.058 242.201C131.688 241.973 131.243 241.901 130.821 242L123.171 243.805C122.29 244.014 121.745 244.895 121.954 245.776L132.301 289.612C132.401 290.035 132.664 290.401 133.034 290.629V290.627ZM129.979 245.562L139.574 286.211L135.113 287.265L125.517 246.615L129.979 245.562Z" fill="black"/>
<path d="M128.817 238.1L123.08 239.454L125.006 247.614L130.743 246.26L128.817 238.1Z" fill="#FFDD43"/>
<path d="M124.151 249.002C124.411 249.163 124.71 249.247 125.011 249.247C125.137 249.247 125.263 249.233 125.387 249.204L131.125 247.849C132.005 247.641 132.55 246.759 132.342 245.879L130.416 237.719C130.317 237.296 130.053 236.931 129.684 236.703C129.315 236.475 128.869 236.403 128.447 236.502L122.71 237.857C121.829 238.065 121.284 238.947 121.493 239.827L123.418 247.987C123.518 248.41 123.781 248.776 124.151 249.003V249.002ZM127.605 240.065L128.779 245.038L126.228 245.639L125.054 240.667L127.605 240.065Z" fill="black"/>
<path d="M137.248 242.884L123.701 246.081L124.514 249.523L138.061 246.326L137.248 242.884Z" fill="black"/>
<path d="M138.004 246.069L135.566 246.644L143.871 281.833L146.309 281.258L138.004 246.069Z" fill="black"/>
<path d="M152.673 368.68L158.567 377.114L160.322 366.873L152.673 368.68Z" fill="#FFDD43"/>
<path d="M158.567 378.751C158.686 378.751 158.805 378.738 158.924 378.712C159.573 378.566 160.068 378.045 160.181 377.39L161.936 367.15C162.029 366.609 161.844 366.056 161.444 365.68C161.043 365.304 160.481 365.153 159.946 365.279L152.296 367.084C151.768 367.209 151.336 367.587 151.142 368.094C150.948 368.601 151.019 369.171 151.329 369.616L157.224 378.05C157.535 378.494 158.039 378.75 158.567 378.75V378.751ZM158.29 369.035L157.626 372.908L155.397 369.719L158.29 369.036V369.035Z" fill="black"/>
<path d="M53.4563 359.568L36.9044 366.441L40.7631 375.734L57.315 368.861L53.4563 359.568Z" fill="#FFDD43"/>
<path d="M40.7377 377.387C40.9473 377.387 41.1595 377.347 41.3652 377.262L57.917 370.391C58.3179 370.224 58.6362 369.905 58.8026 369.504C58.969 369.103 58.9676 368.652 58.8026 368.25L54.9446 358.957C54.7783 358.556 54.4586 358.238 54.0578 358.071C53.6569 357.905 53.2063 357.906 52.8041 358.071L36.2522 364.944C35.8514 365.11 35.5331 365.43 35.3667 365.831C35.2003 366.231 35.2016 366.682 35.3667 367.084L39.2246 376.377C39.4866 377.008 40.0958 377.387 40.7377 377.387ZM52.546 361.725L55.149 367.995L41.6219 373.611L39.019 367.342L52.546 361.726V361.725Z" fill="black"/>
<path d="M50.3072 354.8C49.5435 352.96 46.9772 352.268 44.5891 353.259L38.5788 355.754C36.1907 356.746 34.8689 359.05 35.6339 360.892C36.1946 362.244 37.7273 363.035 39.4447 362.997L43.8869 373.671C44.1489 374.3 44.7581 374.68 45.3987 374.68C45.6083 374.68 45.8218 374.639 46.0275 374.554C46.8619 374.207 47.2576 373.248 46.9104 372.413L41.9756 360.557C41.6508 359.777 40.7875 359.372 39.9805 359.621C39.4683 359.78 39.0111 359.716 38.7661 359.628C38.9102 359.388 39.26 359.017 39.8338 358.779L45.8428 356.285C46.4165 356.046 46.9261 356.061 47.1986 356.127C47.0873 356.362 46.8109 356.731 46.3366 356.983C45.5899 357.379 45.2677 358.278 45.5926 359.059L50.4815 370.806C50.8286 371.641 51.7875 372.036 52.622 371.689C53.4565 371.342 53.8521 370.383 53.505 369.548L49.1086 358.986C50.3465 357.799 50.8666 356.154 50.3059 354.803L50.3072 354.8Z" fill="black"/>
<path d="M59.4873 367.138L38.009 376.057L40.2661 381.493L61.7445 372.574L59.4873 367.138Z" fill="#FFDD43"/>
<path d="M40.2398 383.145C40.4494 383.145 40.6616 383.104 40.8673 383.019L62.3461 374.102C62.7469 373.936 63.0653 373.616 63.2316 373.215C63.398 372.814 63.3967 372.364 63.2316 371.961L60.9745 366.525C60.6273 365.689 59.6697 365.293 58.834 365.641L37.3552 374.558C36.9543 374.724 36.636 375.044 36.4696 375.445C36.3033 375.846 36.3046 376.296 36.4696 376.698L38.7268 382.135C38.9888 382.765 39.5979 383.145 40.2398 383.145ZM58.5772 369.294L59.578 371.706L41.1241 379.367L40.1232 376.955L58.5772 369.294Z" fill="black"/>
<path d="M717.101 277.508L764.418 270.908C769.884 270.146 773.697 265.097 772.935 259.632L758.015 152.662C757.253 147.197 752.204 143.383 746.739 144.146L699.421 150.746C693.956 151.508 690.143 156.557 690.905 162.022L705.825 268.992C706.587 274.457 711.636 278.27 717.101 277.508Z" fill="white"/>
<path d="M708.712 276.891C710.752 278.431 713.184 279.242 715.697 279.242C716.238 279.242 716.783 279.204 717.328 279.128L764.645 272.528C767.722 272.099 770.447 270.498 772.319 268.019C774.191 265.541 774.986 262.481 774.556 259.405L759.637 152.436C759.207 149.358 757.606 146.634 755.128 144.762C752.649 142.89 749.589 142.094 746.513 142.524L699.196 149.124C696.119 149.554 693.394 151.154 691.522 153.633C689.65 156.111 688.855 159.172 689.285 162.247L704.204 269.217C704.634 272.294 706.235 275.019 708.713 276.891H708.712ZM694.133 155.606C695.478 153.825 697.435 152.674 699.645 152.366L746.963 145.766C747.354 145.711 747.746 145.685 748.134 145.685C749.938 145.685 751.686 146.268 753.151 147.374C754.931 148.719 756.083 150.676 756.391 152.886L771.31 259.856C771.618 262.066 771.048 264.264 769.703 266.045C768.358 267.827 766.4 268.977 764.19 269.285L716.873 275.885C714.663 276.193 712.465 275.623 710.683 274.277C708.903 272.932 707.752 270.975 707.444 268.765L692.524 161.795C692.216 159.586 692.786 157.387 694.132 155.606H694.133Z" fill="black"/>
<path d="M711.857 159.056L731.058 156.418C732.095 156.274 732.819 155.315 732.673 154.279C732.529 153.241 731.57 152.518 730.534 152.663L711.333 155.302C710.296 155.446 709.573 156.405 709.718 157.441C709.862 158.479 710.821 159.202 711.857 159.056Z" fill="black"/>
<path d="M738.568 155.37C739.606 155.226 740.329 154.267 740.183 153.231C740.039 152.193 739.08 151.47 738.044 151.615C737.007 151.76 736.284 152.718 736.429 153.755C736.573 154.792 737.532 155.515 738.568 155.37Z" fill="black"/>
<path d="M639.245 141.807L639.754 141.89C641.633 142.194 643.232 142.117 643.535 140.237C643.535 140.237 648.721 110.991 648.994 108.241C648.986 108.172 648.977 108.102 648.969 108.033C648.622 101.315 640.221 96.6832 631.388 102.768C629.047 104.381 628.718 109.935 629.584 111.942C631.332 115.99 636.648 118.221 639.854 116.353L636.219 139.056C635.915 140.936 637.365 141.506 639.245 141.81V141.807Z" fill="white"/>
<path d="M635.938 142.337C636.845 143.011 638.043 143.272 638.985 143.424L639.493 143.507C639.993 143.588 640.572 143.662 641.168 143.662C641.694 143.662 642.231 143.605 642.738 143.441C644.053 143.018 644.91 141.978 645.151 140.512C645.389 139.165 650.349 111.176 650.625 108.404C650.637 108.291 650.636 108.177 650.624 108.064C650.617 108.004 650.61 107.944 650.603 107.884C650.393 104.28 648.267 101.144 644.906 99.4866C642.892 98.4936 640.558 98.1111 638.158 98.3796C635.554 98.6705 632.964 99.6936 630.46 101.418C628.535 102.745 627.882 105.465 627.665 106.971C627.354 109.119 627.514 111.271 628.084 112.589C629.196 115.163 631.541 117.254 634.358 118.182C635.552 118.575 636.73 118.725 637.833 118.636L634.605 138.792C634.368 140.262 634.842 141.521 635.94 142.335L635.938 142.337ZM637.837 139.313L641.472 116.61C641.572 115.985 641.303 115.359 640.782 115C640.504 114.808 640.181 114.713 639.856 114.713C639.571 114.713 639.287 114.786 639.032 114.935C638.1 115.478 636.769 115.528 635.379 115.07C633.468 114.442 631.823 112.993 631.088 111.291C630.409 109.719 630.85 105.126 632.317 104.115C637.802 100.337 641.935 101.674 643.457 102.424C645.759 103.558 647.209 105.686 647.335 108.116C647.337 108.155 647.34 108.195 647.345 108.235V108.248C646.999 111.085 643.673 130.082 641.924 139.949C641.923 139.956 641.922 139.966 641.92 139.973C641.871 140.277 641.819 140.294 641.736 140.322C641.423 140.423 640.845 140.406 640.017 140.272L639.509 140.19C638.036 139.951 637.84 139.664 637.833 139.653C637.833 139.653 637.798 139.562 637.838 139.312L637.837 139.313Z" fill="black"/>
<path d="M650.765 136.235L651.179 136.541C652.711 137.674 654.166 138.339 655.298 136.807C655.298 136.807 673.328 113.204 674.833 110.886C674.858 110.821 674.881 110.755 674.906 110.69C677.681 104.562 672.342 96.5903 661.703 97.9422C658.882 98.3011 656.041 103.084 655.89 105.265C655.585 109.663 659.284 114.085 662.992 113.897L649.341 132.399C648.208 133.93 649.235 135.102 650.767 136.233L650.765 136.235Z" fill="white"/>
<path d="M647.583 135.187C648.081 136.202 649.024 136.984 649.791 137.551L650.205 137.858C650.972 138.425 651.997 139.101 653.118 139.288C653.325 139.322 653.528 139.339 653.729 139.339C654.849 139.339 655.853 138.804 656.607 137.792C657.435 136.708 674.69 114.114 676.207 111.778C676.269 111.684 676.32 111.583 676.36 111.478C676.381 111.423 676.401 111.37 676.422 111.315L676.424 111.308C677.893 108.009 677.444 104.247 675.218 101.233C673.884 99.4264 671.986 98.0155 669.73 97.1522C667.283 96.2156 664.513 95.9352 661.497 96.3191C659.177 96.6138 657.348 98.7321 656.464 99.9687C655.202 101.735 654.356 103.721 654.258 105.152C654.064 107.951 655.188 110.884 657.266 113.001C658.147 113.898 659.125 114.573 660.145 115L648.026 131.426C647.141 132.623 646.983 133.958 647.586 135.187H647.583ZM650.658 133.371L664.308 114.869C664.684 114.359 664.733 113.679 664.433 113.121C664.147 112.588 663.592 112.258 662.99 112.258C662.963 112.258 662.935 112.258 662.908 112.26C661.831 112.314 660.626 111.748 659.601 110.704C658.192 109.267 657.395 107.226 657.524 105.376C657.642 103.669 660.142 99.7892 661.91 99.5652C668.516 98.7255 671.575 101.811 672.583 103.176C674.108 105.24 674.419 107.796 673.415 110.012C673.4 110.048 673.385 110.083 673.372 110.119L673.367 110.134C671.757 112.496 660.082 127.848 654 135.81C653.995 135.817 653.989 135.823 653.985 135.83C653.802 136.078 653.75 136.07 653.662 136.054C653.337 136 652.831 135.72 652.157 135.221L651.743 134.914C650.544 134.027 650.502 133.682 650.501 133.668C650.501 133.668 650.511 133.573 650.662 133.368L650.658 133.371Z" fill="black"/>
</g>
</svg>
