<svg width="416" height="270" viewBox="0 0 416 270" fill="none" xmlns="http://www.w3.org/2000/svg">
<path d="M380.075 230.388V17.6198C380.075 9.09606 374.216 2.18714 366.987 2.18714H106.181C97.8963 1.09079 92.6103 5.84075 92.9958 17.7346V231.098C92.9958 245.694 103.03 229.517 115.409 229.517H357.663C370.042 229.517 380.076 244.983 380.076 230.387L380.075 230.388Z" fill="white"/>
<path d="M380.075 230.388V17.6198C380.075 9.09606 374.216 2.18714 366.987 2.18714H106.181C97.8963 1.09079 92.6103 5.84075 92.9958 17.7346V231.098C92.9958 245.694 103.03 229.517 115.409 229.517H357.663C370.042 229.517 380.076 244.983 380.076 230.387L380.075 230.388Z" stroke="black" stroke-width="2.85981" stroke-linecap="round" stroke-linejoin="round"/>
<path d="M413.129 228.881H59.942C59.2454 228.881 58.6803 229.743 58.6803 230.804V241.459C58.6803 242.521 59.2454 243.382 59.942 243.382H413.129C413.825 243.382 414.39 242.521 414.39 241.459V230.804C414.39 229.741 413.825 228.881 413.129 228.881Z" fill="white" stroke="black" stroke-width="2.85981" stroke-linecap="round" stroke-linejoin="round"/>
<path d="M257.859 237.849H215.211C214.422 237.849 213.781 237.093 213.781 236.161C213.781 235.23 214.422 234.474 215.211 234.474H257.859C258.648 234.474 259.289 235.23 259.289 236.161C259.289 237.093 258.648 237.849 257.859 237.849Z" fill="black"/>
<path d="M370.651 12.7065H102.418V217.758H370.651V12.7065Z" fill="#FFDD43" stroke="black" stroke-width="2.85981" stroke-linecap="round" stroke-linejoin="round"/>
<path d="M111.757 67.3904H6.89371C4.19061 67.3904 2 69.8937 2 72.9829V251.494C2 254.582 4.19176 257.087 6.89371 257.087H111.756C114.459 257.087 116.65 254.583 116.65 251.494V72.9829C116.65 69.895 114.458 67.3904 111.756 67.3904H111.757Z" fill="white" stroke="black" stroke-width="2.26383" stroke-linecap="round" stroke-linejoin="round"/>
<path d="M105.019 76.858H13.6417C11.2864 76.858 9.37714 79.1116 9.37714 81.8915V242.584C9.37714 245.364 11.2864 247.618 13.6417 247.618H105.019C107.375 247.618 109.284 245.364 109.284 242.584V81.8915C109.284 79.1116 107.375 76.858 105.019 76.858Z" fill="#FFDD43" stroke="black" stroke-width="2.16316" stroke-linecap="round" stroke-linejoin="round"/>
<path d="M89.5422 128.036L133.947 128.374C139.076 128.414 143.207 133.354 143.174 139.407L142.524 257.894C142.491 263.948 138.305 268.824 133.177 268.785L88.7724 268.446C83.643 268.407 79.5123 263.466 79.5455 257.413L80.1964 138.926C80.2296 132.872 84.4152 127.996 89.5434 128.036H89.5422Z" fill="#FFDD43" stroke="black" stroke-width="1.67699" stroke-linecap="round" stroke-linejoin="round"/>
<path d="M99.8639 139.03L117.877 139.211C118.851 139.219 119.645 138.293 119.65 137.145C119.656 135.996 118.872 135.059 117.9 135.052L99.8868 134.872C98.9133 134.863 98.1194 135.79 98.1137 136.937C98.1068 138.086 98.8916 139.023 99.8639 139.03Z" fill="black"/>
<path d="M123.176 137.172C123.169 138.321 123.954 139.258 124.926 139.265C125.9 139.273 126.694 138.347 126.699 137.199C126.705 136.05 125.921 135.113 124.949 135.106C123.976 135.1 123.182 136.025 123.176 137.172Z" fill="black"/>
</svg>
