<svg width="64" height="64" viewBox="0 0 64 64" fill="none" xmlns="http://www.w3.org/2000/svg">
<circle cx="32" cy="32" r="32" fill="#FFDD43"/>
<path d="M15.9982 30C16.508 30.0006 16.9984 30.1958 17.3691 30.5457C17.7398 30.8956 17.9629 31.3739 17.9928 31.8828C18.0227 32.3917 17.8571 32.8928 17.5299 33.2837C17.2027 33.6746 16.7385 33.9258 16.2323 33.986L15.9982 34H13.998C13.4882 33.9994 12.9978 33.8042 12.6271 33.4543C12.2564 33.1044 12.0333 32.6261 12.0034 32.1172C11.9736 31.6083 12.1391 31.1072 12.4664 30.7163C12.7936 30.3254 13.2577 30.0742 13.764 30.014L13.998 30H15.9982ZM32 12C32.4899 12.0001 32.9628 12.1799 33.3289 12.5054C33.695 12.8309 33.9289 13.2795 33.9862 13.766L34.0002 14V16C33.9997 16.5098 33.8044 17.0001 33.4545 17.3707C33.1045 17.7414 32.6262 17.9645 32.1172 17.9943C31.6083 18.0242 31.1071 17.8587 30.7162 17.5315C30.3252 17.2043 30.074 16.7402 30.0138 16.234L29.9998 16V14C29.9998 13.4696 30.2105 12.9609 30.5856 12.5858C30.9607 12.2107 31.4695 12 32 12ZM50.002 30C50.5118 30.0006 51.0022 30.1958 51.3729 30.5457C51.7436 30.8956 51.9667 31.3739 51.9966 31.8828C52.0264 32.3917 51.8609 32.8928 51.5336 33.2837C51.2064 33.6746 50.7423 33.9258 50.236 33.986L50.002 34H48.0018C47.492 33.9994 47.0016 33.8042 46.6309 33.4543C46.2602 33.1044 46.0371 32.6261 46.0072 32.1172C45.9773 31.6083 46.1429 31.1072 46.4701 30.7163C46.7973 30.3254 47.2615 30.0742 47.7677 30.014L48.0018 30H50.002ZM17.7844 17.786C18.1288 17.4416 18.5871 17.2348 19.0732 17.2042C19.5593 17.1737 20.0399 17.3215 20.4247 17.62L20.6127 17.786L22.0129 19.186C22.3716 19.5459 22.5799 20.0289 22.5954 20.5368C22.6109 21.0447 22.4325 21.5394 22.0964 21.9206C21.7603 22.3017 21.2917 22.5406 20.7858 22.5888C20.2799 22.637 19.7746 22.4908 19.3726 22.18L19.1846 22.014L17.7844 20.614C17.4094 20.2389 17.1988 19.7303 17.1988 19.2C17.1988 18.6697 17.4094 18.1611 17.7844 17.786ZM43.3873 17.786C43.7472 17.4273 44.2302 17.2191 44.7382 17.2035C45.2461 17.188 45.7409 17.3664 46.1221 17.7025C46.5033 18.0386 46.7422 18.5071 46.7904 19.0129C46.8386 19.5188 46.6925 20.024 46.3816 20.426L46.2156 20.614L44.8154 22.014C44.4555 22.3727 43.9725 22.5809 43.4645 22.5965C42.9566 22.612 42.4617 22.4336 42.0806 22.0975C41.6994 21.7614 41.4604 21.2929 41.4122 20.7871C41.3641 20.2812 41.5102 19.776 41.8211 19.374L41.9871 19.186L43.3873 17.786ZM36.0004 44C36.5309 44 37.0397 44.2107 37.4148 44.5858C37.7899 44.9609 38.0007 45.4696 38.0007 46C38.0007 47.5913 37.3685 49.1174 36.2431 50.2426C35.1178 51.3679 33.5915 52 32 52C30.4085 52 28.8822 51.3679 27.7569 50.2426C26.6315 49.1174 25.9993 47.5913 25.9993 46C25.9994 45.5101 26.1793 45.0373 26.5048 44.6713C26.8304 44.3052 27.279 44.0713 27.7655 44.014L27.9996 44H36.0004ZM32 20C34.5189 20 36.9739 20.7924 39.0173 22.2651C41.0607 23.7377 42.5889 25.8159 43.3855 28.2053C44.182 30.5946 44.2065 33.174 43.4554 35.578C42.7044 37.982 41.2159 40.0888 39.2008 41.6C38.9251 41.8071 38.6006 41.9393 38.2587 41.984L38.0007 42H25.9993C25.5665 42 25.1454 41.8596 24.7992 41.6C22.7841 40.0888 21.2956 37.982 20.5446 35.578C19.7935 33.174 19.818 30.5946 20.6145 28.2053C21.4111 25.8159 22.9393 23.7377 24.9827 22.2651C27.0261 20.7924 29.4811 20 32 20Z" fill="black"/>
</svg>
