<svg width="64" height="64" viewBox="0 0 64 64" fill="none" xmlns="http://www.w3.org/2000/svg">
<circle cx="32" cy="32" r="32" fill="#FFDD43"/>
<path d="M30 16V28C30 30.21 25.97 32 21 32C16.03 32 12 30.21 12 28V16M30 16C30 18.21 25.97 20 21 20C16.03 20 12 18.21 12 16M30 16C30 13.79 25.97 12 21 12C16.03 12 12 13.79 12 16M30 22C30 24.21 25.97 26 21 26C16.03 26 12 24.21 12 22M40 14H46C47.0609 14 48.0783 14.4214 48.8284 15.1716C49.5786 15.9217 50 16.9391 50 18V24M24 50H18C16.9391 50 15.9217 49.5786 15.1716 48.8284C14.4214 48.0783 14 47.0609 14 46V40M48 37C48 39.7614 45.7614 42 43 42C40.2386 42 38 39.7614 38 37C38 34.2386 40.2386 32 43 32C45.7614 32 48 34.2386 48 37ZM52 52H34C34 50.8181 34.2328 49.6478 34.6851 48.5558C35.1374 47.4639 35.8003 46.4718 36.636 45.636C37.4718 44.8003 38.4639 44.1374 39.5558 43.6851C40.6478 43.2328 41.8181 43 43 43C44.1819 43 45.3522 43.2328 46.4441 43.6851C47.5361 44.1374 48.5282 44.8003 49.364 45.636C50.1997 46.4718 50.8626 47.4639 51.3149 48.5558C51.7672 49.6478 52 50.8181 52 52Z" stroke="black" stroke-width="2.5" stroke-linecap="round" stroke-linejoin="round"/>
</svg>
