<svg width="65" height="64" viewBox="0 0 65 64" fill="none" xmlns="http://www.w3.org/2000/svg">
<circle cx="32.5" cy="32" r="32" fill="#FFDD43"/>
<path d="M47.5 48C48.2956 48 49.0587 48.3161 49.6213 48.8787C50.1839 49.4413 50.5 50.2044 50.5 51C50.5 51.7956 50.1839 52.5587 49.6213 53.1213C49.0587 53.6839 48.2956 54 47.5 54C46.7043 54 45.9413 53.6839 45.3787 53.1213C44.8161 52.5587 44.5 51.7956 44.5 51C44.5 50.2044 44.8161 49.4413 45.3787 48.8787C45.9413 48.3161 46.7043 48 47.5 48ZM47.5 48H18.96C15.392 48 13.5 46.438 13.5 44C13.5 41.562 15.392 40 18.96 40H48.5M41.5 18H52.5L48.5 40M41.5 18L39.5 40M41.5 18H30M48.5 40H39.5M39.5 40H31.5M30 18H18.5M30 18L31.5 40M31.5 40H22.5L18.5 18M18.5 18C18.166 16.666 16.5 14 12.5 14M27.5 54C28.2956 54 29.0587 53.6839 29.6213 53.1213C30.1839 52.5587 30.5 51.7956 30.5 51C30.5 50.2044 30.1839 49.4413 29.6213 48.8787C29.0587 48.3161 28.2956 48 27.5 48C26.7043 48 25.9413 48.3161 25.3787 48.8787C24.8161 49.4413 24.5 50.2044 24.5 51C24.5 51.7956 24.8161 52.5587 25.3787 53.1213C25.9413 53.6839 26.7043 54 27.5 54Z" stroke="black" stroke-width="2.5" stroke-linecap="round" stroke-linejoin="round"/>
</svg>
