<svg width="64" height="64" viewBox="0 0 64 64" fill="none" xmlns="http://www.w3.org/2000/svg">
<circle cx="32" cy="32" r="32" fill="#FFDD43"/>
<path d="M13.625 16C13.625 14.9391 14.0398 13.9217 14.7783 13.1716C15.5167 12.4214 16.5182 12 17.5625 12H46.4375C47.4818 12 48.4833 12.4214 49.2217 13.1716C49.9602 13.9217 50.375 14.9391 50.375 16V34.6667C50.375 35.7275 49.9602 36.7449 49.2217 37.4951C48.4833 38.2452 47.4818 38.6667 46.4375 38.6667H32V36H46.4375C46.7856 36 47.1194 35.8595 47.3656 35.6095C47.6117 35.3594 47.75 35.0203 47.75 34.6667V16C47.75 15.6464 47.6117 15.3072 47.3656 15.0572C47.1194 14.8071 46.7856 14.6667 46.4375 14.6667H17.5625C17.2144 14.6667 16.8806 14.8071 16.6344 15.0572C16.3883 15.3072 16.25 15.6464 16.25 16V20H13.625V16ZM32 44H51.6875C52.0356 44 52.3694 43.8595 52.6156 43.6095C52.8617 43.3594 53 43.0203 53 42.6667C53 42.313 52.8617 41.9739 52.6156 41.7239C52.3694 41.4738 52.0356 41.3333 51.6875 41.3333H32V44ZM18.875 44C18.5269 44 18.1931 44.1405 17.9469 44.3905C17.7008 44.6406 17.5625 44.9797 17.5625 45.3333C17.5625 45.687 17.7008 46.0261 17.9469 46.2761C18.1931 46.5262 18.5269 46.6667 18.875 46.6667H21.5C21.8481 46.6667 22.1819 46.5262 22.4281 46.2761C22.6742 46.0261 22.8125 45.687 22.8125 45.3333C22.8125 44.9797 22.6742 44.6406 22.4281 44.3905C22.1819 44.1405 21.8481 44 21.5 44H18.875ZM11 26.6667C11 25.6058 11.4148 24.5884 12.1533 23.8382C12.8917 23.0881 13.8932 22.6667 14.9375 22.6667H25.4375C26.4818 22.6667 27.4833 23.0881 28.2217 23.8382C28.9602 24.5884 29.375 25.6058 29.375 26.6667V48C29.375 49.0609 28.9602 50.0783 28.2217 50.8284C27.4833 51.5786 26.4818 52 25.4375 52H14.9375C13.8932 52 12.8917 51.5786 12.1533 50.8284C11.4148 50.0783 11 49.0609 11 48V26.6667ZM14.9375 25.3333C14.5894 25.3333 14.2556 25.4738 14.0094 25.7239C13.7633 25.9739 13.625 26.313 13.625 26.6667V48C13.625 48.3536 13.7633 48.6928 14.0094 48.9428C14.2556 49.1929 14.5894 49.3333 14.9375 49.3333H25.4375C25.7856 49.3333 26.1194 49.1929 26.3656 48.9428C26.6117 48.6928 26.75 48.3536 26.75 48V26.6667C26.75 26.313 26.6117 25.9739 26.3656 25.7239C26.1194 25.4738 25.7856 25.3333 25.4375 25.3333H14.9375Z" fill="black"/>
</svg>
